<svg width="64" height="14" viewBox="0 0 64 14" fill="none" xmlns="http://www.w3.org/2000/svg">
<g clip-path="url(#clip0_15_486)">
<path d="M7.96877 4.85937C8.26565 3.95312 7.12502 3.45312 6.65627 3.95312C6.0469 2.95312 4.75002 3.67187 4.75002 3.67187C4.75002 3.67187 4.0469 2.89062 3.14065 3.60937C2.81252 3.28124 1.82815 3.20312 1.8594 4.79687C0.765647 4.89062 0.781272 6.42187 1.28127 6.65624L8.50002 7.28124C9.20315 6.99999 9.46877 5.12499 7.96877 4.85937Z" fill="#EDD8B4"/>
<path d="M3.40627 3.74999C3.4844 3.07812 2.18752 3.20312 2.39065 3.93749C1.90627 4.10937 2.25002 4.84374 2.64065 4.65624C2.65627 5.23437 3.62502 5.09374 3.4844 4.48437C3.84377 4.64062 4.15627 3.67187 3.40627 3.74999Z" fill="#FFF8D6"/>
<path d="M3.23437 3.95313C3.37499 3.70313 2.90624 3.42188 2.87499 3.875C2.59374 3.64063 2.23437 4.29688 2.73437 4.3125C2.49999 4.67188 3.10937 4.89063 3.21874 4.54688C3.70312 4.5 3.56249 3.875 3.23437 3.95313Z" fill="#EDD8B4"/>
<path d="M3.24998 4.20312C3.06248 4.15625 3.09373 4.14062 3.10935 4C3.1406 3.73437 2.98435 3.73437 2.99998 3.98437C3.0156 4.14062 2.98435 4.20312 2.8281 4.07812C2.62498 3.9375 2.60935 4.09375 2.79685 4.15625C2.96873 4.23437 2.90623 4.1875 2.90623 4.40625C2.90623 4.57812 2.99998 4.625 3.0156 4.40625C3.03123 4.1875 3.0156 4.20312 3.18748 4.3125C3.35935 4.40625 3.42185 4.25 3.24998 4.20312Z" fill="#C9AE81"/>
<path d="M2.79686 5.46875C3.15624 5.15625 2.28124 4.3125 1.95311 5.17188C1.26561 4.75 0.937489 6.01563 1.60936 6.375C1.93749 6.5625 3.82811 6.4375 2.79686 5.46875Z" fill="#FFF8D6"/>
<path d="M2.07814 5.46875C1.89064 5.1875 1.32814 5.54687 1.78126 5.82812C0.796887 6.28125 3.56251 6.60937 2.70314 5.78125C2.92189 5.21875 2.18751 5.0625 2.07814 5.46875Z" fill="#EDD8B4"/>
<path d="M2.35935 5.57813C2.2031 5.75 2.2031 5.71875 2.06247 5.64063C1.79685 5.46875 1.7031 5.73438 1.99997 5.85938C2.17185 5.92188 2.15622 5.95313 2.3906 6.07813C2.5781 6.17188 2.67185 6.07813 2.43747 5.95313C2.2031 5.82813 2.21872 5.85938 2.43747 5.71875C2.6406 5.54688 2.49997 5.40625 2.35935 5.57813Z" fill="#C9AE81"/>
<path d="M8.68749 5.90625C9.01561 5.625 8.23436 4.875 7.93749 5.64062C7.32811 5.26562 6.79686 6.57812 7.62499 6.71875C7.56249 7.28125 8.43749 7.28125 8.43749 6.8125C8.99999 7.07812 9.35936 6.0625 8.68749 5.90625Z" fill="#FFF8D6"/>
<path d="M8.0469 5.90626C7.87502 5.65626 7.3594 5.96876 7.78127 6.21876C7.40627 6.39063 7.87502 7.03126 8.14065 6.54688C8.39065 6.93751 8.89065 6.43751 8.62502 6.17188C8.7969 5.68751 8.14065 5.54688 8.0469 5.90626Z" fill="#EDD8B4"/>
<path d="M8.2969 6.00001C8.15627 6.15626 8.15627 6.12501 8.03127 6.04688C7.7969 5.89063 7.70315 6.03126 7.96877 6.14063C8.12502 6.20313 8.1719 6.25001 7.96877 6.35938C7.7344 6.48438 7.89065 6.57813 8.03127 6.43751C8.18752 6.28126 8.1094 6.32813 8.31252 6.43751C8.4844 6.51563 8.56252 6.43751 8.3594 6.32813C8.15627 6.21876 8.15627 6.23438 8.3594 6.10938C8.5469 5.98438 8.4219 5.84376 8.2969 6.00001Z" fill="#C9AE81"/>
<path d="M5.59372 4.09374C5.93747 3.79687 5.10935 3.01562 4.81247 3.81249C4.17185 3.42187 3.62497 4.78124 4.48435 4.93749C4.42185 5.51562 5.3281 5.53124 5.34372 5.03124C5.92185 5.31249 6.28122 4.24999 5.59372 4.09374Z" fill="#FFF8D6"/>
<path d="M4.92187 4.09375C4.75 3.82812 4.21875 4.15625 4.64062 4.42187C4.25 4.59375 4.73437 5.26562 5.01562 4.76562C5.26562 5.17187 5.79687 4.65625 5.51562 4.375C5.71875 3.85937 5.01562 3.71875 4.92187 4.09375Z" fill="#EDD8B4"/>
<path d="M5.17189 4.1875C5.01564 4.35938 5.03126 4.32813 4.89064 4.25C4.64064 4.09375 4.54689 4.23438 4.82814 4.34375C4.98439 4.40625 5.03126 4.46875 4.84376 4.5625C4.59376 4.70313 4.75001 4.79688 4.90626 4.64063C5.06251 4.48438 4.98439 4.53125 5.20314 4.64063C5.37501 4.73438 5.46876 4.64063 5.25001 4.53125C5.03126 4.40625 5.04689 4.4375 5.25001 4.3125C5.43751 4.17188 5.31251 4.04688 5.17189 4.1875Z" fill="#C9AE81"/>
<path d="M4.31248 5.51563C4.40623 5.06251 3.21873 4.89063 3.48436 5.76563C2.70311 5.82813 3.03123 6.92188 3.93748 6.92188C5.21873 6.90626 4.98436 5.21876 4.31248 5.51563Z" fill="#FFF8D6"/>
<path d="M3.62502 5.9375C3.37502 7.17187 5.1719 6.71875 4.4219 5.8125C4.26565 5.25 3.71877 5.53125 3.62502 5.9375Z" fill="#EDD8B4"/>
<path d="M4.01564 5.84375C4.00001 6.07813 3.82814 5.96875 3.70314 6.07813C3.34376 6.39063 4.31251 6.6875 4.46876 6.125C4.50001 5.98438 4.06251 6.14063 4.14064 5.90625C4.23439 5.67188 4.04689 5.64063 4.01564 5.84375Z" fill="#C9AE81"/>
<path d="M7.07813 4.45313C7.17188 4.00001 6.00001 3.84376 6.26563 4.70313C5.50001 4.76563 5.90626 6.21876 6.70314 5.82813C7.01564 6.34376 7.76563 5.81251 7.46876 5.40626C8.10938 5.26563 7.75001 4.17188 7.07813 4.45313Z" fill="#FFF8D6"/>
<path d="M6.53128 4.85937C6.21878 4.75 6.00003 5.34375 6.51565 5.29688C6.31253 5.67188 7.12503 5.9375 7.03128 5.35938C7.50003 5.54688 7.6094 4.79688 7.20315 4.75C7.03128 4.1875 6.37503 4.48437 6.53128 4.85937Z" fill="#EDD8B4"/>
<path d="M6.81248 4.78124C6.79685 5.01562 6.78123 4.98437 6.62498 4.98437C6.3281 4.99999 6.34373 5.17187 6.62498 5.10937C6.79685 5.06249 6.87498 5.07812 6.7656 5.29687C6.6406 5.56249 6.84373 5.54687 6.87498 5.31249C6.90623 5.07812 6.87498 5.17187 7.10935 5.14062C7.31248 5.10937 7.3281 4.98437 7.0781 5.01562C6.8281 5.04687 6.85935 5.06249 6.93748 4.82812C7.0156 4.60937 6.8281 4.57812 6.81248 4.78124Z" fill="#C9AE81"/>
<path d="M1.21877 6.5L2.45315 12.6875H3.46877L2.64065 6.5C2.57815 5.625 1.09377 5.625 1.21877 6.5Z" fill="#ED4C5C"/>
<path d="M2.64065 6.5L3.46878 12.6875H4.4844L4.06253 6.5C4.06253 5.625 2.57815 5.625 2.64065 6.5Z" fill="#F9F9F9"/>
<path d="M4.0625 6.5L4.48438 12.6875H5.5V6.5C5.54688 5.625 4.0625 5.625 4.0625 6.5Z" fill="#ED4C5C"/>
<path d="M5.5 6.5V12.6875H6.5L6.92187 6.5C7.01562 5.625 5.54688 5.625 5.5 6.5Z" fill="#F9F9F9"/>
<path d="M6.5 12.6875L7.14063 12.25L7.4375 6.70312C7.53125 6.03124 6.96875 5.78124 6.90625 6.49999L6.5 12.6875Z" fill="#C94747"/>
<path d="M7.6875 11.875L7.98437 6.90625C8.09375 6.28125 7.54688 6.03125 7.45313 6.70313L7.15625 12.25L7.6875 11.875Z" fill="#E8E8E8"/>
<path d="M8.14062 11.5781L8.5 7.12501C8.625 6.54688 8.09375 6.29688 7.98437 6.92188L7.6875 11.8906L8.14062 11.5781Z" fill="#C94747"/>
<path d="M8.4375 11.375L8.79688 7.3125C8.82813 6.85938 8.54688 6.70313 8.5 7.125L8.14062 11.5781L8.4375 11.375Z" fill="#E8E8E8"/>
</g>
<path d="M20.8906 13H18.7656V7.6875C18.7656 7.54167 18.737 7.40365 18.6797 7.27344C18.6276 7.14323 18.5521 7.02865 18.4531 6.92969C18.3542 6.83073 18.2396 6.75521 18.1094 6.70312C17.9792 6.64583 17.8411 6.61719 17.6953 6.61719C17.5495 6.61719 17.4115 6.64583 17.2812 6.70312C17.1562 6.75521 17.0443 6.83073 16.9453 6.92969C16.8516 7.02865 16.776 7.14323 16.7188 7.27344C16.6667 7.40365 16.6406 7.54167 16.6406 7.6875V13H14.5078V7.6875C14.5078 7.54167 14.4792 7.40365 14.4219 7.27344C14.3698 7.14323 14.2943 7.02865 14.1953 6.92969C14.0964 6.83073 13.9818 6.75521 13.8516 6.70312C13.7214 6.64583 13.5833 6.61719 13.4375 6.61719C13.2917 6.61719 13.1536 6.64583 13.0234 6.70312C12.8984 6.75521 12.7865 6.83073 12.6875 6.92969C12.5938 7.02865 12.5182 7.14323 12.4609 7.27344C12.4089 7.40365 12.3828 7.54167 12.3828 7.6875V13H10.25V4.63281H10.7656L11.3438 5.27344C11.6406 5.02344 11.9661 4.83073 12.3203 4.69531C12.6797 4.55469 13.0521 4.48438 13.4375 4.48438C13.8281 4.48438 14.2083 4.55729 14.5781 4.70312C14.9531 4.84896 15.2812 5.10156 15.5625 5.46094C15.6927 5.28385 15.8411 5.13281 16.0078 5.00781C16.1745 4.88281 16.349 4.78125 16.5312 4.70312C16.7188 4.625 16.9115 4.57031 17.1094 4.53906C17.3073 4.5026 17.5026 4.48438 17.6953 4.48438C18.138 4.48438 18.5521 4.56771 18.9375 4.73438C19.3281 4.90104 19.6667 5.13021 19.9531 5.42188C20.2448 5.70833 20.474 6.04688 20.6406 6.4375C20.8073 6.82812 20.8906 7.24479 20.8906 7.6875V13ZM33.0938 13H30.9688V7.6875C30.9688 7.54167 30.9401 7.40365 30.8828 7.27344C30.8307 7.14323 30.7552 7.02865 30.6562 6.92969C30.5573 6.83073 30.4427 6.75521 30.3125 6.70312C30.1823 6.64583 30.0443 6.61719 29.8984 6.61719C29.7526 6.61719 29.6146 6.64583 29.4844 6.70312C29.3594 6.75521 29.2474 6.83073 29.1484 6.92969C29.0547 7.02865 28.9792 7.14323 28.9219 7.27344C28.8698 7.40365 28.8438 7.54167 28.8438 7.6875V13H26.7109V7.6875C26.7109 7.54167 26.6823 7.40365 26.625 7.27344C26.5729 7.14323 26.4974 7.02865 26.3984 6.92969C26.2995 6.83073 26.1849 6.75521 26.0547 6.70312C25.9245 6.64583 25.7865 6.61719 25.6406 6.61719C25.4948 6.61719 25.3568 6.64583 25.2266 6.70312C25.1016 6.75521 24.9896 6.83073 24.8906 6.92969C24.7969 7.02865 24.7214 7.14323 24.6641 7.27344C24.612 7.40365 24.5859 7.54167 24.5859 7.6875V13H22.4531V4.63281H22.9688L23.5469 5.27344C23.8438 5.02344 24.1693 4.83073 24.5234 4.69531C24.8828 4.55469 25.2552 4.48438 25.6406 4.48438C26.0312 4.48438 26.4115 4.55729 26.7812 4.70312C27.1562 4.84896 27.4844 5.10156 27.7656 5.46094C27.8958 5.28385 28.0443 5.13281 28.2109 5.00781C28.3776 4.88281 28.5521 4.78125 28.7344 4.70312C28.9219 4.625 29.1146 4.57031 29.3125 4.53906C29.5104 4.5026 29.7057 4.48438 29.8984 4.48438C30.3411 4.48438 30.7552 4.56771 31.1406 4.73438C31.5312 4.90104 31.8698 5.13021 32.1562 5.42188C32.4479 5.70833 32.6771 6.04688 32.8438 6.4375C33.0104 6.82812 33.0938 7.24479 33.0938 7.6875V13ZM42.7422 8.74219C42.7422 9.36719 42.6302 9.95052 42.4062 10.4922C42.1823 11.0286 41.8776 11.4948 41.4922 11.8906C41.1068 12.2812 40.6536 12.5911 40.1328 12.8203C39.6172 13.0443 39.0625 13.1562 38.4688 13.1562C37.8802 13.1562 37.3255 13.0443 36.8047 12.8203C36.2891 12.5911 35.8359 12.2812 35.4453 11.8906C35.0599 11.4948 34.7552 11.0286 34.5312 10.4922C34.3073 9.95052 34.1953 9.36719 34.1953 8.74219C34.1953 8.10677 34.3073 7.51823 34.5312 6.97656C34.7552 6.4349 35.0599 5.96875 35.4453 5.57812C35.8359 5.18229 36.2891 4.8724 36.8047 4.64844C37.3255 4.42448 37.8802 4.3125 38.4688 4.3125C39.0625 4.3125 39.6172 4.41927 40.1328 4.63281C40.6536 4.84115 41.1068 5.14062 41.4922 5.53125C41.8776 5.91667 42.1823 6.38281 42.4062 6.92969C42.6302 7.47135 42.7422 8.07552 42.7422 8.74219ZM40.5938 8.74219C40.5938 8.39844 40.5365 8.08854 40.4219 7.8125C40.3125 7.53125 40.1615 7.29167 39.9688 7.09375C39.776 6.89062 39.5495 6.73698 39.2891 6.63281C39.0339 6.52344 38.7604 6.46875 38.4688 6.46875C38.1771 6.46875 37.901 6.52344 37.6406 6.63281C37.3854 6.73698 37.1615 6.89062 36.9688 7.09375C36.7812 7.29167 36.6328 7.53125 36.5234 7.8125C36.4141 8.08854 36.3594 8.39844 36.3594 8.74219C36.3594 9.0651 36.4141 9.36458 36.5234 9.64062C36.6328 9.91667 36.7812 10.1562 36.9688 10.3594C37.1615 10.5625 37.3854 10.724 37.6406 10.8438C37.901 10.9583 38.1771 11.0156 38.4688 11.0156C38.7604 11.0156 39.0339 10.9609 39.2891 10.8516C39.5495 10.7422 39.776 10.5885 39.9688 10.3906C40.1615 10.1927 40.3125 9.95312 40.4219 9.67188C40.5365 9.39062 40.5938 9.08073 40.5938 8.74219ZM46.0469 13L42.8594 4.63281H45.2891L47.1172 9.85156L48.9375 4.63281H51.375L48.1875 13H46.0469ZM54.7031 2.35938C54.7031 2.55729 54.6641 2.74219 54.5859 2.91406C54.513 3.08594 54.4115 3.23698 54.2812 3.36719C54.151 3.49219 53.9974 3.59375 53.8203 3.67188C53.6484 3.74479 53.4635 3.78125 53.2656 3.78125C53.0677 3.78125 52.8802 3.74479 52.7031 3.67188C52.5312 3.59375 52.3802 3.49219 52.25 3.36719C52.125 3.23698 52.0234 3.08594 51.9453 2.91406C51.8724 2.74219 51.8359 2.55729 51.8359 2.35938C51.8359 2.16667 51.8724 1.98438 51.9453 1.8125C52.0234 1.63542 52.125 1.48438 52.25 1.35938C52.3802 1.22917 52.5312 1.1276 52.7031 1.05469C52.8802 0.976562 53.0677 0.9375 53.2656 0.9375C53.4635 0.9375 53.6484 0.976562 53.8203 1.05469C53.9974 1.1276 54.151 1.22917 54.2812 1.35938C54.4115 1.48438 54.513 1.63542 54.5859 1.8125C54.6641 1.98438 54.7031 2.16667 54.7031 2.35938ZM54.3359 13H52.1875V4.63281H54.3359V13ZM59.2969 10.9531C59.3802 10.9792 59.4635 10.9974 59.5469 11.0078C59.6302 11.013 59.7135 11.0156 59.7969 11.0156C60.0052 11.0156 60.2057 10.987 60.3984 10.9297C60.5911 10.8724 60.7708 10.7917 60.9375 10.6875C61.1094 10.5781 61.2604 10.4479 61.3906 10.2969C61.526 10.1406 61.6354 9.96875 61.7188 9.78125L63.2812 11.3516C63.0833 11.6328 62.8542 11.8854 62.5938 12.1094C62.3385 12.3333 62.0599 12.5234 61.7578 12.6797C61.4609 12.8359 61.1458 12.9531 60.8125 13.0312C60.4844 13.1146 60.1458 13.1562 59.7969 13.1562C59.2083 13.1562 58.6536 13.0469 58.1328 12.8281C57.6172 12.6094 57.1641 12.3047 56.7734 11.9141C56.388 11.5234 56.0833 11.0599 55.8594 10.5234C55.6354 9.98177 55.5234 9.38802 55.5234 8.74219C55.5234 8.08073 55.6354 7.47656 55.8594 6.92969C56.0833 6.38281 56.388 5.91667 56.7734 5.53125C57.1641 5.14583 57.6172 4.84635 58.1328 4.63281C58.6536 4.41927 59.2083 4.3125 59.7969 4.3125C60.1458 4.3125 60.487 4.35417 60.8203 4.4375C61.1536 4.52083 61.4688 4.64062 61.7656 4.79688C62.0677 4.95312 62.349 5.14583 62.6094 5.375C62.8698 5.59896 63.099 5.85156 63.2969 6.13281L59.2969 10.9531ZM60.3906 6.55469C60.2917 6.51823 60.1927 6.49479 60.0938 6.48438C60 6.47396 59.901 6.46875 59.7969 6.46875C59.5052 6.46875 59.2292 6.52344 58.9688 6.63281C58.7135 6.73698 58.4896 6.88802 58.2969 7.08594C58.1094 7.28385 57.9609 7.52344 57.8516 7.80469C57.7422 8.08073 57.6875 8.39323 57.6875 8.74219C57.6875 8.82031 57.6901 8.90885 57.6953 9.00781C57.7057 9.10677 57.7188 9.20833 57.7344 9.3125C57.7552 9.41146 57.7786 9.50781 57.8047 9.60156C57.8307 9.69531 57.8646 9.77865 57.9062 9.85156L60.3906 6.55469Z" fill="#FC7753"/>
<defs>
<clipPath id="clip0_15_486">
<rect width="10" height="10" fill="white" transform="translate(0 3)"/>
</clipPath>
</defs>
</svg>
