<svg width="34" height="34" viewBox="0 0 34 34" fill="none" xmlns="http://www.w3.org/2000/svg">
<rect x="1" y="1" width="32" height="32" fill="#237BB1"/>
<path d="M33 1H1V33H33V1Z" stroke="#041016" stroke-miterlimit="10"/>
<path d="M10.5981 11.9039L10.5981 11.9039C11.1246 11.6638 11.6976 11.6852 12.2045 11.7993C12.4904 11.8636 12.7707 11.9609 13.0334 12.0724L13.8293 8.72676C12.6641 8.16482 11.6923 8.03815 10.8921 8.18399C10.0176 8.34339 9.28181 8.84035 8.67857 9.58757C7.45474 11.1035 6.83847 13.5814 6.83765 15.9008L10.5981 11.9039ZM10.5981 11.9039L10.5952 11.9052M10.5981 11.9039L10.5952 11.9052M10.5952 11.9052C10.1768 12.0991 9.8735 12.4387 9.65418 12.8008C9.4342 13.164 9.28034 13.5797 9.17175 13.9762C8.95522 14.7669 8.89795 15.5596 8.89795 15.9008C8.89795 16.4304 8.75673 16.9153 8.53343 17.2511C8.31025 17.5867 8.06002 17.7019 7.8678 17.7019C7.67558 17.7019 7.42535 17.5867 7.20217 17.2511C6.97889 16.9153 6.83768 16.4306 6.83765 15.901L10.5952 11.9052Z" fill="#041016" stroke="#041016"/>
<path d="M12.8647 10.6281L12.8647 10.6279C12.8646 10.2357 12.9423 9.86078 13.0792 9.55221C13.2171 9.2415 13.3981 9.03487 13.5733 8.92558C13.74 8.82168 13.9 8.80422 14.0499 8.84897C14.2093 8.89659 14.3944 9.02701 14.5603 9.27631C14.7257 9.52491 14.8492 9.85987 14.8999 10.2431C14.9505 10.6254 14.924 11.0206 14.8266 11.3744C14.7286 11.7303 14.5694 12.0078 14.3907 12.1874C14.2148 12.3641 14.0409 12.4279 13.8949 12.4279H13.8945C13.7953 12.428 13.6871 12.3993 13.5735 12.3287C13.4582 12.2569 13.3386 12.1421 13.2292 11.9778C13.1201 11.8138 13.0279 11.61 12.9633 11.3757C12.8988 11.1417 12.8647 10.8873 12.8647 10.6281Z" fill="#041016" stroke="#041016"/>
<path d="M8.89795 9.90507V23.3617H6.83765V9.90507C6.83765 9.37545 6.97887 8.89063 7.20217 8.55483C7.42535 8.21921 7.67558 8.104 7.8678 8.104C8.06002 8.104 8.31025 8.21921 8.53343 8.55483C8.75673 8.89063 8.89795 9.37545 8.89795 9.90507Z" fill="#041016" stroke="#041016"/>
<mask id="path-6-inside-1_414_978" fill="white">
<path d="M9.07389 8.48828C7.21399 9.9637 6.33846 13.0916 6.33765 15.9008C6.33765 16.5111 6.49886 17.0964 6.78582 17.5279C7.07278 17.9594 7.46198 18.2019 7.8678 18.2019C8.27362 18.2019 8.66282 17.9594 8.94978 17.5279C9.23674 17.0964 9.39795 16.5111 9.39795 15.9008V9.90508C9.39808 9.39146 9.28369 8.89261 9.07308 8.48828"/>
</mask>
<path d="M9.07389 8.48828C7.21399 9.9637 6.33846 13.0916 6.33765 15.9008C6.33765 16.5111 6.49886 17.0964 6.78582 17.5279C7.07278 17.9594 7.46198 18.2019 7.8678 18.2019C8.27362 18.2019 8.66282 17.9594 8.94978 17.5279C9.23674 17.0964 9.39795 16.5111 9.39795 15.9008V9.90508C9.39808 9.39146 9.28369 8.89261 9.07308 8.48828" fill="#041016"/>
<path d="M6.33765 15.9008L5.33765 15.9005V15.9008L6.33765 15.9008ZM9.39795 9.90508L8.39795 9.90483V9.90508H9.39795ZM8.45241 7.70485C7.3208 8.60254 6.55047 9.94647 6.06261 11.3702C5.57114 12.8045 5.33808 14.3997 5.33765 15.9005L7.33765 15.9011C7.33802 14.5927 7.54314 13.2194 7.95461 12.0185C8.36969 10.8072 8.96708 9.84945 9.69537 9.27171L8.45241 7.70485ZM5.33765 15.9008C5.33765 16.6724 5.53883 17.4586 5.95312 18.0816L7.61852 16.9742C7.45888 16.7341 7.33765 16.3498 7.33765 15.9008L5.33765 15.9008ZM5.95312 18.0816C6.36764 18.705 7.03477 19.2019 7.8678 19.2019V17.2019C7.86682 17.2019 7.8633 17.2018 7.85576 17.1996C7.84785 17.1972 7.83272 17.1915 7.81095 17.1779C7.76641 17.1502 7.69564 17.0902 7.61852 16.9742L5.95312 18.0816ZM7.8678 19.2019C8.70083 19.2019 9.36796 18.705 9.78248 18.0816L8.11708 16.9742C8.03995 17.0902 7.96919 17.1502 7.92464 17.1779C7.90288 17.1915 7.88774 17.1972 7.87983 17.1996C7.87229 17.2018 7.86878 17.2019 7.8678 17.2019V19.2019ZM9.78248 18.0816C10.1968 17.4586 10.398 16.6724 10.398 15.9008H8.39795C8.39795 16.3498 8.27672 16.7341 8.11708 16.9742L9.78248 18.0816ZM10.398 15.9008V9.90508H8.39795V15.9008H10.398ZM10.398 9.90532C10.3981 9.25139 10.2539 8.59059 9.95997 8.02631L8.18618 8.95025C8.31348 9.19464 8.39804 9.53154 8.39795 9.90483L10.398 9.90532Z" fill="#041016" mask="url(#path-6-inside-1_414_978)"/>
<path d="M8.89795 23.8764C8.89795 24.4271 8.7486 24.903 8.53343 25.2266C8.31586 25.5538 8.07055 25.6775 7.8678 25.6775C7.66505 25.6775 7.41974 25.5538 7.20217 25.2266C6.987 24.903 6.83765 24.4271 6.83765 23.8764C6.83765 23.3257 6.987 22.8497 7.20217 22.5261C7.41974 22.199 7.66505 22.0753 7.8678 22.0753C8.07055 22.0753 8.31586 22.199 8.53343 22.5261C8.7486 22.8497 8.89795 23.3257 8.89795 23.8764Z" fill="#041016" stroke="#041016"/>
<path d="M18.0428 25.89C17.8506 25.89 17.6004 25.7748 17.3772 25.4391C17.1539 25.1033 17.0127 24.6185 17.0127 24.0889V9.89653C17.0127 9.3669 17.1539 8.88209 17.3772 8.54629C17.6004 8.21067 17.8506 8.09546 18.0428 8.09546C18.2351 8.09546 18.4853 8.21067 18.7085 8.54629C18.9318 8.88209 19.073 9.3669 19.073 9.89653V24.0887C19.073 24.0888 19.073 24.0888 19.073 24.0889C19.0728 24.6184 18.9315 25.103 18.7082 25.4388C18.4851 25.7744 18.2348 25.8898 18.0424 25.89L18.0428 26.39V25.89Z" fill="#041016" stroke="#041016"/>
<path d="M20.0731 9.89674C20.0733 9.55324 20.0285 9.21102 19.9399 8.88874C20.6963 8.3398 21.4663 8.11622 22.1984 8.14073C23.0212 8.16826 23.8421 8.51094 24.5819 9.14198C25.9856 10.3394 27.0622 12.5538 27.1767 15.3739H25.1053C25.0858 15.1478 25.053 14.9238 25.0069 14.7048L25.0068 14.7042C24.7786 13.625 24.3178 12.8219 23.7035 12.3241C23.083 11.8214 22.3355 11.6568 21.6193 11.8172C21.0322 11.9486 20.4985 12.2843 20.0731 12.7864V9.89674ZM20.0731 9.89674C20.0731 9.8968 20.073 9.89685 20.073 9.89691L19.5732 9.89654H20.0731V9.89674Z" fill="#041016" stroke="#041016"/>
<mask id="path-11-inside-2_414_978" fill="white">
<path d="M19.3536 8.71057C18.6104 9.32973 17.9714 10.1967 17.4856 11.2449C16.8538 12.6015 16.5152 14.2178 16.5159 15.8739C16.5159 16.4842 16.6771 17.0695 16.964 17.501C17.251 17.9326 17.6402 18.175 18.046 18.175C18.4518 18.175 18.841 17.9326 19.128 17.501C19.415 17.0695 19.5762 16.4842 19.5762 15.8739V9.89653C19.5764 9.47853 19.5005 9.06841 19.3569 8.71057"/>
</mask>
<path d="M19.3536 8.71057C18.6104 9.32973 17.9714 10.1967 17.4856 11.2449C16.8538 12.6015 16.5152 14.2178 16.5159 15.8739C16.5159 16.4842 16.6771 17.0695 16.964 17.501C17.251 17.9326 17.6402 18.175 18.046 18.175C18.4518 18.175 18.841 17.9326 19.128 17.501C19.415 17.0695 19.5762 16.4842 19.5762 15.8739V9.89653C19.5764 9.47853 19.5005 9.06841 19.3569 8.71057" fill="#041016"/>
<path d="M17.4856 11.2449L18.3921 11.6671L18.3929 11.6654L17.4856 11.2449ZM16.5159 15.8739L17.5159 15.8739L17.5159 15.8735L16.5159 15.8739ZM19.5762 9.89653L18.5762 9.89603V9.89653H19.5762ZM18.7136 7.94226C17.8367 8.6728 17.1144 9.66769 16.5783 10.8244L18.3929 11.6654C18.8284 10.7257 19.3842 9.98667 19.9937 9.47888L18.7136 7.94226ZM16.5791 10.8227C15.8794 12.3252 15.5152 14.0879 15.5159 15.8743L17.5159 15.8735C17.5153 14.3476 17.8283 12.8778 18.3921 11.6671L16.5791 10.8227ZM15.5159 15.8739C15.5159 16.6455 15.7171 17.4318 16.1313 18.0548L17.7967 16.9473C17.6371 16.7072 17.5159 16.3229 17.5159 15.8739L15.5159 15.8739ZM16.1313 18.0548C16.5459 18.6781 17.213 19.175 18.046 19.175V17.175C18.045 17.175 18.0415 17.175 18.034 17.1727C18.0261 17.1703 18.0109 17.1646 17.9892 17.151C17.9446 17.1233 17.8739 17.0633 17.7967 16.9473L16.1313 18.0548ZM18.046 19.175C18.8791 19.175 19.5462 18.6781 19.9607 18.0548L18.2953 16.9473C18.2182 17.0633 18.1474 17.1233 18.1029 17.151C18.0811 17.1646 18.066 17.1703 18.0581 17.1727C18.0505 17.175 18.047 17.175 18.046 17.175V19.175ZM19.9607 18.0548C20.375 17.4318 20.5762 16.6455 20.5762 15.8739H18.5762C18.5762 16.3229 18.4549 16.7072 18.2953 16.9473L19.9607 18.0548ZM20.5762 15.8739V9.89653H18.5762V15.8739H20.5762ZM20.5762 9.89702C20.5764 9.36201 20.48 8.82408 20.2849 8.338L18.4289 9.08314C18.5211 9.31274 18.5763 9.59504 18.5762 9.89603L20.5762 9.89702Z" fill="#041016" mask="url(#path-11-inside-2_414_978)"/>
<path d="M25.1265 16.3739H27.1803V23.7904H25.1265V16.3739Z" fill="#041016" stroke="#041016"/>
<path d="M26.1566 14.0741C25.9645 14.0741 25.7143 14.1892 25.4912 14.5246C25.268 14.8601 25.1267 15.3446 25.1265 15.8739L26.1566 14.0741ZM26.1566 14.0741C26.3488 14.0741 26.5989 14.1892 26.822 14.5246C27.0453 14.8601 27.1866 15.3446 27.1868 15.8739L26.1566 14.0741ZM25.491 17.2242C25.2677 16.8884 25.1265 16.4037 25.1265 15.8741H27.1868C27.1867 16.4037 27.0455 16.8884 26.8222 17.2242C26.5991 17.5598 26.3488 17.675 26.1566 17.675C25.9644 17.675 25.7142 17.5598 25.491 17.2242Z" fill="#041016" stroke="#041016"/>
<path d="M25.1265 24.1034C25.1263 23.7112 25.204 23.3362 25.341 23.0277C25.4789 22.717 25.6598 22.5103 25.8351 22.401C26.0017 22.2971 26.1617 22.2797 26.3116 22.3244C26.4711 22.3721 26.6562 22.5025 26.822 22.7518C26.9874 23.0004 27.1109 23.3353 27.1616 23.7186C27.2122 24.1008 27.1857 24.496 27.0883 24.8499C26.9903 25.2057 26.8311 25.4833 26.6524 25.6628C26.4765 25.8396 26.3027 25.9034 26.1566 25.9034C25.9645 25.9034 25.7143 25.7883 25.4912 25.4529C25.2679 25.1173 25.1267 24.6328 25.1265 24.1034Z" fill="#041016" stroke="#041016"/>
<path d="M17.0127 24.1036L17.0127 24.1034C17.0126 23.7112 17.0902 23.3362 17.2272 23.0277C17.3651 22.717 17.546 22.5103 17.7213 22.401C17.8879 22.2971 18.048 22.2797 18.1978 22.3244C18.3573 22.3721 18.5424 22.5025 18.7083 22.7518C18.8737 23.0004 18.9971 23.3353 19.0479 23.7186C19.0985 24.1008 19.072 24.496 18.9745 24.8499C18.8766 25.2057 18.7173 25.4833 18.5386 25.6628C18.3627 25.8396 18.1889 25.9034 18.0428 25.9034H18.0424C17.9433 25.9035 17.835 25.8748 17.7215 25.8042C17.6061 25.7324 17.4865 25.6176 17.3772 25.4533C17.2681 25.2892 17.1758 25.0855 17.1112 24.8511C17.0467 24.6171 17.0127 24.3628 17.0127 24.1036Z" fill="#041016" stroke="#041016"/>
</svg>
