<svg width="20" height="20" viewBox="0 0 20 20" fill="none" xmlns="http://www.w3.org/2000/svg">
<g clip-path="url(#clip0_404_704)">
<path d="M0 0H20V20H0V0Z" fill="#1C0A00"/>
<path d="M0.835 0.854945H19.1679V19.1451H0.835V0.854945ZM0 20H20V0H0V20ZM13.1 7.1282C13.1 7.06007 13.125 7.02564 13.2 7.02564H14.5086C14.575 7.02564 14.6086 7.05128 14.6086 7.1282V13.8718C14.6086 13.9399 14.5921 13.9744 14.5086 13.9744H13.2179C13.1343 13.9744 13.1093 13.9319 13.1093 13.863V7.1282H13.1ZM13.0086 5.18828C13.0086 4.95706 13.0981 4.73532 13.2575 4.57183C13.4169 4.40833 13.6331 4.31648 13.8586 4.31648C14.084 4.31648 14.3002 4.40833 14.4596 4.57183C14.619 4.73532 14.7086 4.95706 14.7086 5.18828C14.7168 5.30639 14.6999 5.42493 14.659 5.53568C14.6182 5.64643 14.5543 5.74675 14.4719 5.82967C14.3895 5.9126 14.2905 5.97616 14.1817 6.01594C14.073 6.05572 13.9571 6.07078 13.8421 6.06007C13.7295 6.06732 13.6166 6.04959 13.5113 6.00808C13.4059 5.96658 13.3105 5.90227 13.2315 5.81954C13.1525 5.73681 13.0919 5.63761 13.0537 5.52868C13.0154 5.41974 13.0005 5.30364 13.01 5.18828H13.0086ZM9.25857 9.94066C9.025 8.98828 8.47286 6.92381 8.26714 5.92381H8.25071C8.07571 6.92381 7.63429 8.61612 7.28429 9.94066H9.25857ZM6.94214 11.3253L6.28357 13.8894C6.26714 13.9575 6.24214 13.9751 6.15857 13.9751H4.935C4.85143 13.9751 4.835 13.9495 4.85143 13.8469L7.21786 5.34872C7.27546 5.11703 7.30355 4.87866 7.30143 4.63956C7.30143 4.57949 7.32643 4.55385 7.36786 4.55385H9.11786C9.17643 4.55385 9.20143 4.5707 9.21786 4.63956L11.8679 13.8615C11.8843 13.9297 11.8679 13.9729 11.8014 13.9729H10.4179C10.3514 13.9729 10.3093 13.956 10.2929 13.8996L9.60929 11.3267H6.94286L6.94214 11.3253Z" fill="#FF7F18"/>
</g>
<defs>
<clipPath id="clip0_404_704">
<rect width="20" height="20" fill="white"/>
</clipPath>
</defs>
</svg>
