<svg width="20" height="20" viewBox="0 0 20 20" fill="none" xmlns="http://www.w3.org/2000/svg">
<g clip-path="url(#clip0_404_657)">
<path d="M4.15406 0C3.01289 0 2.16844 1.25385 2.20625 2.61362C2.24258 3.91993 2.19539 5.61197 1.85609 6.99174C1.51578 8.37554 0.940156 9.2521 0 9.36469V10.6353C0.940156 10.7479 1.51578 11.6245 1.85609 13.0084C2.19539 14.3881 2.24258 16.08 2.20625 17.3864C2.16844 18.746 3.01289 20 4.15422 20H15.8474C16.9887 20 17.8329 18.7461 17.7951 17.3864C17.7588 16.0801 17.8059 14.3881 18.1452 13.0084C18.4858 11.6246 19.0598 10.7478 20 10.6353V9.36469C19.0598 9.2521 18.4858 8.37554 18.1453 6.99174C17.8059 5.61216 17.7588 3.92003 17.7951 2.61362C17.8329 1.25405 16.9887 0 15.8474 0H4.15391H4.15406ZM13.5594 12.3113C13.5594 14.1836 12.4469 15.3191 10.6006 15.3191H7.45766C7.36777 15.3191 7.28156 15.2743 7.21801 15.1945C7.15445 15.1147 7.11875 15.0064 7.11875 14.8936V5.10641C7.11874 5.05052 7.1275 4.99517 7.14453 4.94353C7.16156 4.89189 7.18653 4.84497 7.21801 4.80545C7.24949 4.76592 7.28686 4.73457 7.32799 4.71318C7.36913 4.69179 7.41321 4.68078 7.45773 4.68078H10.5827C12.1221 4.68078 13.1324 5.72769 13.1324 7.3349C13.1324 8.46302 12.4527 9.47296 11.5869 9.64978V9.70873C12.7657 9.87104 13.5594 10.8958 13.5594 12.3113ZM10.2578 6.02975H8.46586V9.20728H9.97523C11.142 9.20728 11.7854 8.61748 11.7854 7.56321C11.7854 6.57533 11.232 6.02975 10.2578 6.02975ZM8.46586 10.4681V13.9698H10.3238C11.5385 13.9698 12.1821 13.3579 12.1821 12.2079C12.1821 11.0577 11.5206 10.4679 10.2457 10.4679H8.46586V10.4681Z" fill="#7E13F8"/>
</g>
<defs>
<clipPath id="clip0_404_657">
<rect width="20" height="20" fill="white"/>
</clipPath>
</defs>
</svg>
