<svg width="20" height="20" viewBox="0 0 20 20" fill="none" xmlns="http://www.w3.org/2000/svg">
<path d="M2.93959 17.8318L1.36865 0.211304H18.6312L17.0587 17.8291L9.98943 19.789L2.93959 17.8318Z" fill="#1572B6"/>
<path d="M10.0002 18.2909L15.7126 16.7072L17.0565 1.65186H10.0002V18.2909Z" fill="#33A9DC"/>
<path d="M10.0002 8.03581H12.8599L13.0574 5.82284H10.0002V3.66174H15.4193L15.3674 4.24159L14.8362 10.1969H10.0002V8.03581Z" fill="white"/>
<path d="M10.0129 13.6483L10.0034 13.6511L7.59665 13.0013L7.44274 11.2777H5.27368L5.57634 14.671L10.0031 15.8996L10.0129 15.8968V13.6483Z" fill="#EBEBEB"/>
<path d="M12.676 10.1055L12.4157 12.9995L10.0054 13.6502V15.8986L14.4357 14.6708L14.4682 14.3056L14.8441 10.1055H12.676Z" fill="white"/>
<path d="M10.0074 3.66174V5.82284H4.78743L4.74415 5.33721L4.64571 4.24159L4.59399 3.66174H10.0074ZM10.0001 8.03612V10.1972H7.62368L7.5804 9.71159L7.48181 8.61596L7.43024 8.03612H10.0001Z" fill="#EBEBEB"/>
</svg>
