<svg width="20" height="20" viewBox="0 0 20 20" fill="none" xmlns="http://www.w3.org/2000/svg">
<g clip-path="url(#clip0_404_794)">
<path d="M20 15.49C19.7089 15.6001 19.3876 15.5998 19.0967 15.4893C18.8058 15.3788 18.5654 15.1656 18.4208 14.89L15.5458 10.9141L15.1292 10.3583L11.7933 14.895C11.6575 15.159 11.4301 15.3645 11.1538 15.4731C10.8774 15.5817 10.5709 15.5859 10.2917 15.485L14.59 9.71831L10.5917 4.50915C10.8792 4.40554 11.1936 4.40417 11.482 4.50526C11.7704 4.60634 12.0151 4.80372 12.175 5.06415L15.155 9.08914L18.1517 5.08081C18.2886 4.82147 18.516 4.62147 18.7907 4.51884C19.0654 4.4162 19.3683 4.41809 19.6417 4.52415L18.09 6.58331L15.9883 9.31915C15.93 9.37121 15.8833 9.43502 15.8513 9.5064C15.8193 9.57777 15.8028 9.6551 15.8028 9.73331C15.8028 9.81152 15.8193 9.88885 15.8513 9.96023C15.8833 10.0316 15.93 10.0954 15.9883 10.1475L19.9917 15.4908L20 15.49ZM0.00167666 9.64665L0.351677 7.91748C1.31334 4.49831 5.23334 3.07581 7.93001 5.19248C9.50918 6.43331 9.90334 8.18998 9.82584 10.17H0.93001C0.785843 13.7058 3.33751 15.8408 6.60001 14.75C7.12889 14.5596 7.60229 14.241 7.97781 13.8227C8.35332 13.4045 8.61922 12.8996 8.75168 12.3533C8.92418 11.7983 9.20834 11.7033 9.73001 11.8633C9.64308 12.5403 9.40377 13.1888 9.03007 13.7599C8.65637 14.3311 8.15802 14.81 7.57251 15.1608C6.60536 15.6898 5.4957 15.8995 4.4022 15.7599C3.30869 15.6202 2.28734 15.1384 1.48418 14.3833C0.690034 13.4895 0.210073 12.3604 0.11751 11.1683C0.11751 10.9725 0.0508433 10.7891 0.00584333 10.6133C0.00178669 10.2914 -0.000157798 9.96943 9.9969e-06 9.64748L0.00167666 9.64665ZM0.940843 9.40831H8.98584C8.93584 6.84498 7.31834 5.02665 5.16084 5.00998C2.75918 4.97665 1.04084 6.75498 0.93501 9.39665L0.940843 9.40831Z" fill="black"/>
</g>
<defs>
<clipPath id="clip0_404_794">
<rect width="20" height="20" fill="white"/>
</clipPath>
</defs>
</svg>
