<svg width="20" height="20" viewBox="0 0 20 20" fill="none" xmlns="http://www.w3.org/2000/svg">
<path d="M10.0008 1.66663C5.39665 1.66663 1.66748 5.39579 1.66748 9.99996C1.66648 11.7493 2.21631 13.4545 3.23899 14.8737C4.26167 16.2929 5.70526 17.354 7.36498 17.9066C7.78165 17.9791 7.93831 17.7291 7.93831 17.51C7.93831 17.3125 7.92748 16.6566 7.92748 15.9583C5.83415 16.3441 5.29248 15.4483 5.12581 14.9791C5.03165 14.7391 4.62582 14 4.27165 13.8016C3.97998 13.6458 3.56332 13.26 4.26082 13.25C4.91748 13.2391 5.38581 13.8541 5.54248 14.1041C6.29248 15.3641 7.48998 15.01 7.96915 14.7916C8.04248 14.25 8.26082 13.8858 8.50082 13.6775C6.64665 13.4691 4.70915 12.75 4.70915 9.56246C4.70915 8.65579 5.03165 7.90663 5.56332 7.32246C5.47998 7.11413 5.18831 6.25996 5.64665 5.11413C5.64665 5.11413 6.34415 4.89579 7.93831 5.96913C8.6167 5.78084 9.31762 5.68608 10.0216 5.68746C10.73 5.68746 11.4383 5.78079 12.105 5.96829C13.6991 4.88496 14.3966 5.11496 14.3966 5.11496C14.855 6.26079 14.5633 7.11496 14.48 7.32329C15.0108 7.90663 15.3341 8.64579 15.3341 9.56246C15.3341 12.7608 13.3866 13.4691 11.5316 13.6775C11.8341 13.9375 12.095 14.4375 12.095 15.2191C12.095 16.3333 12.0841 17.2291 12.0841 17.5108C12.0841 17.7291 12.2408 17.9891 12.6575 17.9058C14.3115 17.3471 15.7487 16.2839 16.7669 14.8657C17.7851 13.4475 18.3329 11.7458 18.3333 9.99996C18.3333 5.39579 14.6041 1.66663 9.99998 1.66663H10.0008Z" fill="black"/>
</svg>
