<svg width="20" height="20" viewBox="0 0 20 20" fill="none" xmlns="http://www.w3.org/2000/svg">
<path d="M2.97441 17.7931L1.41113 0.259521H18.5886L17.0236 17.7905L9.98942 19.7405L2.97441 17.7931Z" fill="#E44D26"/>
<path d="M10 18.25L15.6841 16.6741L17.0214 1.69312H10V18.25Z" fill="#F16529"/>
<path d="M10 8.19613H7.15438L6.95782 5.99394H10V3.84363H4.60767L4.65923 4.4205L5.18767 10.3466H10V8.19613ZM10 13.781L9.99048 13.7836L7.59563 13.1368L7.44267 11.4219H5.28376L5.58501 14.7983L9.99017 16.0211L10 16.0185V13.781Z" fill="#EBEBEB"/>
<path d="M9.99243 8.19613V10.3466H12.6404L12.3909 13.1355L9.99243 13.7828V16.0202L14.401 14.7983L14.4334 14.435L14.9387 8.77363L14.991 8.19613H14.4117H9.99243ZM9.99243 3.84363V5.99394H15.1868L15.2299 5.51082L15.3281 4.4205L15.3795 3.84363H9.99243Z" fill="white"/>
</svg>
