<svg width="20" height="20" viewBox="0 0 20 20" fill="none" xmlns="http://www.w3.org/2000/svg">
<g clip-path="url(#clip0_404_640)">
<path d="M0 0H20V20H0V0Z" fill="#F7DF1E"/>
<path d="M5.25887 16.7134L6.78934 15.7872C7.08465 16.3107 7.35324 16.7537 7.99754 16.7537C8.61512 16.7537 9.00457 16.5121 9.00457 15.5724V9.18196H10.884V15.599C10.884 17.5456 9.74293 18.4317 8.07809 18.4317C6.57457 18.4317 5.70184 17.6531 5.25879 16.7133M11.9049 16.512L13.4352 15.626C13.8381 16.2839 14.3617 16.7672 15.2879 16.7672C16.0668 16.7672 16.5633 16.3778 16.5633 15.8408C16.5633 15.1964 16.0532 14.9681 15.1939 14.5924L14.7242 14.3908C13.3682 13.8137 12.4687 13.0887 12.4687 11.5582C12.4687 10.1485 13.5427 9.07446 15.2209 9.07446C16.4157 9.07446 17.275 9.49071 17.8925 10.5781L16.429 11.518C16.1068 10.9407 15.7579 10.7125 15.2208 10.7125C14.6704 10.7125 14.3213 11.0616 14.3213 11.518C14.3213 12.0818 14.6704 12.3102 15.4758 12.6592L15.9457 12.8606C17.5433 13.5453 18.4428 14.2434 18.4428 15.814C18.4428 17.5057 17.1137 18.432 15.3282 18.432C13.5829 18.432 12.4552 17.5996 11.9048 16.5121" fill="black"/>
</g>
<defs>
<clipPath id="clip0_404_640">
<rect width="20" height="20" fill="white"/>
</clipPath>
</defs>
</svg>
