<svg width="20" height="20" viewBox="0 0 20 20" fill="none" xmlns="http://www.w3.org/2000/svg">
<g clip-path="url(#clip0_404_767)">
<path fill-rule="evenodd" clip-rule="evenodd" d="M13.6343 15.6467C13.6607 15.5959 13.686 15.551 13.7076 15.5046C13.7212 15.4749 13.7421 15.469 13.7716 15.4698C13.9487 15.4748 14.1257 15.4803 14.3029 15.482C14.4533 15.4835 14.6041 15.4807 14.7547 15.479C14.9244 15.477 15.0941 15.4681 15.2637 15.4729C15.4894 15.4795 15.7094 15.5237 15.9137 15.6242C16.1576 15.7443 16.3421 15.9273 16.4679 16.1684C16.5469 16.3213 16.5963 16.4877 16.6133 16.659C16.6402 16.9103 16.6226 17.1557 16.5429 17.396C16.4441 17.6939 16.2566 17.9218 15.9962 18.0926C15.7957 18.224 15.5758 18.3017 15.3402 18.346C15.0908 18.3931 14.8407 18.3779 14.5905 18.3787C14.3162 18.3798 14.0419 18.3739 13.7676 18.3707C13.7196 18.3703 13.7127 18.3612 13.7254 18.3154L13.7371 18.2732C13.7638 18.1892 13.7782 18.1854 13.8635 18.1714C13.924 18.1618 13.9818 18.1399 14.0333 18.1068C14.0621 18.0878 14.074 18.0381 14.0852 17.9998C14.0949 17.9664 14.0954 17.9296 14.0957 17.8943C14.0996 17.3592 14.1037 16.8242 14.1058 16.2893C14.1064 16.154 14.1031 16.0188 14.0957 15.8837C14.0904 15.7892 14.0399 15.7245 13.9274 15.7021C13.8399 15.6848 13.7518 15.6714 13.6638 15.6559L13.6343 15.6467ZM16.1462 16.9424C16.1343 16.8359 16.1285 16.7284 16.1094 16.6234C16.0638 16.3714 15.9535 16.1518 15.7597 15.9798C15.4465 15.7018 15.0693 15.659 14.674 15.6921C14.584 15.6996 14.5646 15.7304 14.5632 15.8229C14.561 15.9542 14.5588 16.0854 14.5587 16.2167C14.558 16.6329 14.558 17.0492 14.5587 17.4654C14.5588 17.5839 14.5601 17.7023 14.5635 17.8204C14.5672 17.9414 14.6112 18.0437 14.7296 18.0906C14.9163 18.1645 15.1127 18.1732 15.3087 18.1431C15.6216 18.0951 15.8405 17.9128 15.9874 17.6395C16.1037 17.4226 16.1365 17.1859 16.1462 16.9424ZM16.9069 18.3598C16.9032 18.2949 16.9297 18.2414 16.9626 18.1921C16.9715 18.1789 17.0021 18.1795 17.0232 18.1753L17.2022 18.1398C17.2655 18.1264 17.2988 18.0839 17.3077 18.0218C17.3137 17.9809 17.3193 17.9395 17.3197 17.8981C17.324 17.5704 17.3271 17.2428 17.329 16.9151C17.3305 16.587 17.3293 16.2589 17.3293 15.9307L17.3279 15.8681C17.3215 15.7626 17.2705 15.7079 17.1658 15.6924L16.9388 15.6579C16.9108 15.6542 16.9007 15.6407 16.9108 15.6159C16.9283 15.5735 16.9451 15.5296 16.9697 15.4915C16.979 15.4774 17.0101 15.472 17.031 15.4724C17.1394 15.474 17.2479 15.4821 17.3563 15.482L18.3002 15.4764C18.4821 15.4762 18.6577 15.5079 18.8208 15.5949C19.0004 15.6906 19.1008 15.8385 19.1296 16.0401C19.1596 16.2518 19.0954 16.4303 18.9407 16.572C18.8771 16.6304 18.7947 16.6685 18.721 16.716L18.6969 16.731C18.7654 16.7562 18.8305 16.7779 18.894 16.8039C19.0796 16.8799 19.2272 16.9989 19.3054 17.1887C19.3671 17.3385 19.3671 17.4948 19.3305 17.6501C19.2737 17.8932 19.1135 18.0549 18.9052 18.1773C18.7097 18.2921 18.4982 18.359 18.2729 18.3703C18.0651 18.3807 17.8563 18.3768 17.648 18.3792L17.5274 18.3798C17.3267 18.3752 17.1259 18.3702 16.9252 18.3648L16.9069 18.3598ZM17.7721 17.4084H17.7741C17.7741 17.5112 17.7727 17.614 17.7746 17.7168C17.7758 17.7834 17.7735 17.8518 17.7879 17.9159C17.8094 18.0117 17.8532 18.0981 17.9607 18.1256C18.1044 18.1633 18.2545 18.1699 18.401 18.1449C18.5849 18.1129 18.7316 18.0207 18.8121 17.8456C18.8718 17.7154 18.8807 17.5774 18.8602 17.4365C18.833 17.2509 18.7344 17.1162 18.5705 17.0279C18.463 16.9699 18.3483 16.9345 18.2262 16.9298C18.0893 16.9246 17.9522 16.9243 17.8154 16.9201C17.7769 16.919 17.7716 16.9385 17.7718 16.9701C17.7726 17.116 17.7721 17.2621 17.7721 17.4084ZM18.0635 16.7092C18.1383 16.7054 18.223 16.7043 18.3072 16.6959C18.4685 16.6798 18.5821 16.5987 18.6413 16.4445C18.6715 16.3662 18.6702 16.2856 18.671 16.2042C18.6733 15.9921 18.5496 15.8184 18.3482 15.7465C18.1927 15.691 18.0324 15.6901 17.8712 15.6945C17.8058 15.6962 17.7766 15.7248 17.7757 15.7906L17.766 16.6482C17.7655 16.6823 17.7802 16.697 17.8133 16.6981L18.0635 16.7092Z" fill="#94795D"/>
<path fill-rule="evenodd" clip-rule="evenodd" d="M1.64736 18.195L1.63595 18.3425C1.5297 18.3425 1.43173 18.3417 1.33376 18.3428C1.14923 18.3446 0.964701 18.3476 0.780013 18.3503L0.762201 18.3514C0.735794 18.3482 0.687826 18.3482 0.686576 18.3404C0.678763 18.2965 0.681263 18.2504 0.683294 18.205C0.683451 18.1998 0.701419 18.1932 0.711888 18.1907L0.855482 18.1587C0.945013 18.1354 0.976576 18.0968 0.980794 18.0043C0.985638 17.9001 0.990482 17.7957 0.990951 17.6915C0.992357 17.435 0.990794 17.1787 0.991888 16.9221C0.992044 16.8621 0.971263 16.8175 0.915326 16.7931C0.848856 16.7636 0.781921 16.7351 0.714544 16.7078C0.682669 16.695 0.641263 16.6879 0.645013 16.6451C0.648763 16.6015 0.688919 16.5901 0.726732 16.5815C0.883294 16.5457 1.04001 16.5109 1.19611 16.4728C1.24642 16.4604 1.29454 16.4396 1.3547 16.4187C1.35783 16.4512 1.36361 16.4821 1.36298 16.5131L1.35376 16.6601C1.35361 16.6767 1.3622 16.6989 1.37454 16.7081C1.38204 16.7139 1.4072 16.7034 1.4197 16.6937C1.55314 16.5921 1.69439 16.5045 1.85548 16.4534C2.10501 16.3742 2.31923 16.4476 2.46923 16.6628C2.52204 16.7385 2.5222 16.7385 2.59548 16.6856C2.72126 16.5942 2.85283 16.5135 3.00001 16.4604C3.32314 16.3437 3.63361 16.4918 3.74595 16.8173C3.78689 16.9354 3.80251 17.0575 3.8022 17.1821L3.79923 18.01C3.79908 18.0782 3.82173 18.1171 3.88673 18.1384C3.9597 18.1623 4.03533 18.1787 4.11751 18.2003L4.09845 18.3426C4.00501 18.3426 3.91908 18.342 3.83314 18.3428C3.62314 18.3446 3.41314 18.3457 3.20329 18.3506C3.16673 18.3515 3.1572 18.3425 3.15533 18.3082C3.14923 18.1987 3.14829 18.1989 3.25142 18.1742L3.28611 18.1653C3.38689 18.1378 3.42048 18.1068 3.42126 18.0046C3.42361 17.7112 3.4297 17.417 3.41486 17.1242C3.39939 16.8204 3.15829 16.6587 2.86392 16.7365C2.76891 16.7625 2.67943 16.8056 2.59986 16.8637C2.57251 16.8832 2.56736 16.9057 2.56954 16.94C2.57783 17.0693 2.58298 17.1989 2.58408 17.3284C2.58595 17.5551 2.58314 17.7818 2.58408 18.0087C2.58439 18.1006 2.61579 18.1357 2.70658 18.157L2.84142 18.1881L2.86642 18.1937C2.86829 18.2368 2.87001 18.28 2.86798 18.3231C2.86673 18.3501 2.84579 18.3525 2.82236 18.352C2.69126 18.3487 2.56001 18.3443 2.42892 18.3446C2.26939 18.345 2.11001 18.3495 1.95064 18.3523H1.91314C1.91314 18.3065 1.91095 18.2628 1.9147 18.2192C1.91548 18.2087 1.93392 18.194 1.94658 18.1907L2.10376 18.1575C2.17048 18.141 2.20236 18.1068 2.20611 18.039C2.22392 17.725 2.23673 17.4107 2.2072 17.0968C2.2 17.0348 2.1828 16.9744 2.15626 16.9179C2.07579 16.7401 1.8947 16.6659 1.68579 16.7193C1.58658 16.7446 1.49704 16.7901 1.41236 16.8475C1.39389 16.8588 1.37872 16.8748 1.36836 16.8939C1.358 16.9129 1.3528 16.9344 1.35329 16.956C1.35329 17.2693 1.35439 17.5826 1.35533 17.8957L1.35704 18.0165C1.35892 18.1007 1.3947 18.1451 1.47829 18.1632C1.53204 18.1754 1.58642 18.1837 1.64736 18.195Z" fill="#50382B"/>
<path fill-rule="evenodd" clip-rule="evenodd" d="M11.0939 16.4508C11.1182 16.5686 11.1177 16.6745 11.0311 16.7549C10.9452 16.8347 10.8364 16.8078 10.7303 16.79C10.7402 16.8459 10.7511 16.8934 10.7564 16.9416C10.795 17.2992 10.6411 17.5647 10.3094 17.7164C10.1841 17.7736 10.0511 17.7949 9.91534 17.8058C9.84784 17.8111 9.78878 17.8627 9.78237 17.9181C9.77581 17.9744 9.81112 18.0322 9.88175 18.0491C9.96503 18.0689 10.0519 18.0745 10.1374 18.0844C10.3208 18.1053 10.5063 18.1149 10.6875 18.1477C10.9616 18.197 11.1146 18.4363 11.0663 18.7116C11.0233 18.9566 10.8814 19.1349 10.6836 19.2716C10.3503 19.5025 9.98472 19.57 9.59534 19.4522C9.37269 19.3847 9.21565 19.2383 9.16143 19.0014C9.13425 18.8828 9.16315 18.7755 9.25237 18.695C9.35847 18.5997 9.47394 18.5147 9.58503 18.4247L9.62097 18.3886L9.57972 18.3597C9.46644 18.3059 9.37581 18.2324 9.34065 18.1045C9.32862 18.0613 9.34112 18.0328 9.37784 18.0106C9.44034 17.973 9.50253 17.9347 9.56425 17.8958C9.59331 17.8777 9.62206 17.8589 9.64909 17.838C9.68597 17.8099 9.68269 17.7889 9.63862 17.7727C9.53612 17.7349 9.44503 17.68 9.3744 17.5956C9.25643 17.4549 9.223 17.2872 9.23269 17.1102C9.24784 16.8336 9.398 16.6514 9.64206 16.5342C9.93222 16.395 10.2233 16.3863 10.5191 16.5131C10.6285 16.56 10.7438 16.57 10.8611 16.5619C10.9488 16.5556 11.0253 16.5225 11.0939 16.4508ZM10.0247 18.4322C9.8069 18.4303 9.73862 18.4572 9.61081 18.5874C9.46768 18.7333 9.46847 18.9356 9.61128 19.0822C9.71972 19.1933 9.85503 19.2453 10.0055 19.2609C10.1813 19.2791 10.3544 19.2717 10.5141 19.1838C10.6844 19.0895 10.7691 18.9145 10.7308 18.7383C10.6991 18.5928 10.5919 18.5263 10.4614 18.488C10.313 18.4445 10.1596 18.4363 10.0247 18.4322ZM9.5969 17.0403C9.60487 17.1008 9.60815 17.162 9.62159 17.2213C9.65643 17.3747 9.72315 17.5095 9.87581 17.5778C10.055 17.6583 10.2839 17.6238 10.3624 17.3722C10.416 17.2048 10.4097 17.024 10.3447 16.8606C10.3172 16.786 10.2676 16.7215 10.2025 16.6756C10.0469 16.567 9.76612 16.5527 9.65175 16.7927C9.61456 16.8706 9.60003 16.9536 9.5969 17.0403Z" fill="#4F382B"/>
<path fill-rule="evenodd" clip-rule="evenodd" d="M7.3984 16.4122C7.40418 16.4389 7.41574 16.4692 7.41605 16.4997C7.41652 16.5577 7.41027 16.6156 7.40699 16.6736V16.7239L7.45605 16.6864C7.59043 16.5758 7.7348 16.4816 7.90293 16.4308C8.20636 16.3394 8.50949 16.5055 8.6084 16.8145C8.6459 16.932 8.66074 17.0528 8.66215 17.1756C8.66527 17.4484 8.66715 17.7212 8.66996 17.9941C8.6709 18.092 8.68215 18.1095 8.7748 18.1378C8.82753 18.1536 8.88131 18.1655 8.93574 18.1736C8.96558 18.1783 8.9784 18.19 8.97683 18.2192L8.97715 18.2461C8.97605 18.3591 8.96824 18.3642 8.85871 18.3639C8.59652 18.3634 8.33449 18.365 8.0723 18.3672C7.99418 18.3678 7.99402 18.3702 7.98621 18.293L7.98465 18.2486C7.98949 18.182 7.99105 18.1827 8.05652 18.173C8.10058 18.1664 8.14433 18.1562 8.1873 18.145C8.23152 18.1336 8.25277 18.1009 8.25871 18.0572C8.26168 18.035 8.26558 18.0128 8.26543 17.9906C8.26168 17.6925 8.26652 17.3941 8.25027 17.0964C8.23715 16.8556 8.0534 16.7122 7.81168 16.7286C7.69516 16.7367 7.58316 16.7768 7.48808 16.8447C7.42355 16.8898 7.41058 16.955 7.4109 17.0252C7.41215 17.3039 7.4148 17.5827 7.41777 17.8616C7.4184 17.9227 7.42011 17.9837 7.4259 18.0444C7.43199 18.1106 7.45527 18.1373 7.52027 18.1517C7.58246 18.1655 7.6459 18.1734 7.7123 18.1845L7.71793 18.2358C7.72011 18.3553 7.70761 18.3642 7.59152 18.3637C7.32043 18.3627 7.04933 18.3644 6.7784 18.3673C6.73574 18.368 6.71761 18.3545 6.71871 18.313L6.71808 18.2952C6.71105 18.1875 6.71418 18.1834 6.81605 18.1659L6.86418 18.1562C6.97449 18.1314 7.00277 18.102 7.00433 17.99C7.00949 17.6352 7.01136 17.2805 7.01496 16.9256C7.01543 16.8747 6.99621 16.8352 6.94871 16.8141C6.88205 16.7849 6.81501 16.7565 6.74761 16.7291C6.71043 16.7137 6.66793 16.7041 6.66652 16.6527C6.66558 16.6164 6.70433 16.5844 6.7573 16.5736C6.86371 16.552 6.97105 16.5341 7.07621 16.5077C7.1809 16.4816 7.28371 16.4466 7.3984 16.4122Z" fill="#4F372B"/>
<path fill-rule="evenodd" clip-rule="evenodd" d="M13.2601 17.3391C13.2551 17.6705 13.1691 17.9385 12.9347 18.1396C12.6378 18.3947 12.1747 18.4814 11.7961 18.2907C11.6345 18.2093 11.5158 18.0844 11.4384 17.9224C11.3198 17.6732 11.2901 17.4111 11.352 17.1427C11.4133 16.8772 11.5741 16.6849 11.8147 16.5603C12.0622 16.4324 12.3228 16.3824 12.5976 16.4496C12.9453 16.5344 13.1951 16.8178 13.2448 17.1788C13.2537 17.2421 13.2572 17.3061 13.2601 17.3391ZM12.8575 17.5186L12.8441 17.5171C12.8441 17.4858 12.8458 17.4546 12.8437 17.4233C12.8323 17.2286 12.7886 17.0432 12.6758 16.8802C12.5687 16.7258 12.423 16.6347 12.2333 16.6214C12.0209 16.6064 11.8425 16.7252 11.7798 16.9421C11.6858 17.2677 11.7176 17.585 11.883 17.8833C11.955 18.0133 12.0617 18.1093 12.2047 18.1597C12.4848 18.2583 12.7333 18.1307 12.8062 17.8438C12.8331 17.7378 12.8409 17.6271 12.8575 17.5186Z" fill="#4F382B"/>
<path fill-rule="evenodd" clip-rule="evenodd" d="M6.37793 17.3646C6.37215 17.6025 6.31606 17.8223 6.16918 18.0134C6.01184 18.2181 5.79559 18.3275 5.54965 18.3736C5.25887 18.4279 4.98575 18.3786 4.75215 18.1834C4.64121 18.0906 4.56543 17.9717 4.51543 17.8364C4.4334 17.6145 4.41293 17.3871 4.4634 17.1554C4.51731 16.9075 4.65731 16.7179 4.87434 16.5907C5.12528 16.444 5.39606 16.3786 5.68528 16.4445C6.05715 16.5295 6.27184 16.7718 6.35121 17.1387C6.36715 17.2128 6.36934 17.2893 6.37793 17.3646ZM5.97075 17.5215L5.95997 17.52V17.4753C5.95387 17.2571 5.91122 17.0493 5.78106 16.8681C5.68465 16.7336 5.55559 16.6492 5.39012 16.6256C5.12043 16.5871 4.94418 16.7471 4.88575 16.9645C4.8095 17.2484 4.8334 17.5289 4.95137 17.7981C5.02496 17.9659 5.14122 18.0967 5.31981 18.1601C5.59825 18.259 5.85043 18.1281 5.9209 17.8423C5.94684 17.7378 5.95465 17.6287 5.97075 17.5215Z" fill="#4F372B"/>
<path fill-rule="evenodd" clip-rule="evenodd" d="M12.8691 5.24121C13.0608 5.79543 13.1986 6.36121 13.2441 6.94746C13.3003 7.67496 13.2747 8.39746 13.1213 9.11293L13.1016 9.17012C13.0534 9.17027 13.0044 9.16418 12.9574 9.17152C12.56 9.23402 12.1631 9.29871 11.7661 9.36309C11.3556 9.42965 10.9449 9.49356 10.5352 9.56449C10.39 9.58949 10.2103 9.55965 10.1517 9.76027L10.1236 9.7698L10.1434 8.57012L10.1233 5.67543L10.3145 5.64262C10.6272 5.59152 10.9399 5.53949 11.253 5.48965C11.6264 5.43043 12.0002 5.37262 12.3739 5.3148C12.5389 5.28949 12.7041 5.2659 12.8691 5.24121Z" fill="#439934"/>
<path fill-rule="evenodd" clip-rule="evenodd" d="M9.72898 13.2673C9.52726 13.0939 9.31851 12.9281 9.12523 12.7456C8.08492 11.7643 7.32383 10.6092 6.94898 9.21652C6.8457 8.83339 6.77695 8.44386 6.75476 8.04792C6.73914 7.77074 6.71679 7.49121 6.73648 7.21542C6.78851 6.48214 6.89461 5.75589 7.10961 5.04949L7.12148 5.03308C7.14242 5.06089 7.17242 5.08558 7.18304 5.11699C7.39304 5.73511 7.60133 6.35386 7.80867 6.97308C8.46008 8.91855 9.1107 10.8645 9.7632 12.8096C9.77601 12.8476 9.80898 12.8787 9.83273 12.9129L9.72898 13.2673Z" fill="#45A538"/>
<path fill-rule="evenodd" clip-rule="evenodd" d="M12.8692 5.24123C12.704 5.26576 12.5388 5.28951 12.374 5.31482C12.0003 5.37263 11.6265 5.43044 11.2531 5.48966C10.9401 5.53935 10.6274 5.59138 10.3146 5.64263L10.1234 5.67544L10.1218 5.55076C10.1154 5.44826 10.1048 5.34576 10.1034 5.24326L10.082 3.28169C10.077 2.87248 10.0695 2.46326 10.0612 2.05419C10.057 1.79995 10.0496 1.54576 10.0392 1.29169C10.0329 1.15529 10.0109 1.01951 10.0021 0.883101C9.99697 0.804663 10.0038 0.725601 10.0056 0.646851C10.1031 0.835757 10.1985 1.02607 10.2987 1.21357C10.457 1.50998 10.7093 1.72841 10.9367 1.96669C11.8345 2.90904 12.4718 4.00404 12.8692 5.24123Z" fill="#46A037"/>
<path fill-rule="evenodd" clip-rule="evenodd" d="M10.1238 9.76988L10.1519 9.76035C10.2105 9.55972 10.3902 9.58957 10.5353 9.56457C10.945 9.49363 11.3558 9.42972 11.7663 9.36316C12.1633 9.29894 12.5602 9.23426 12.9575 9.1716C13.0046 9.16426 13.0536 9.17035 13.1017 9.17019C13.0275 9.43519 12.9691 9.70597 12.8749 9.96363C12.7678 10.2558 12.6385 10.5411 12.5011 10.8208C12.2954 11.2379 12.0408 11.6291 11.7428 11.9861C11.5138 12.2614 11.2585 12.5163 11.0027 12.7677C10.8611 12.9066 10.6946 13.0199 10.5392 13.1449L10.4989 13.1174L10.3541 12.9936L10.2042 12.6649C10.1019 12.2815 10.046 11.8872 10.0378 11.4905L10.0407 11.4236L10.0611 11.1339C10.0678 11.035 10.0769 10.9363 10.0811 10.8374C10.0961 10.4818 10.1096 10.1258 10.1238 9.76988Z" fill="#409433"/>
<path fill-rule="evenodd" clip-rule="evenodd" d="M10.1237 9.76988C10.1096 10.1258 10.0962 10.4819 10.081 10.8379C10.0768 10.9369 10.0679 11.0357 10.061 11.1344L9.96978 11.1689C9.76696 10.5719 9.56399 9.98113 9.36556 9.38895C9.03728 8.4091 8.71306 7.42785 8.38524 6.4477C8.12053 5.65666 7.85397 4.86624 7.58556 4.07645C7.5729 4.03957 7.53696 4.01051 7.51196 3.97785L8.09634 2.90332C8.11649 2.93816 8.1429 2.97082 8.15556 3.00832C8.42587 3.80832 8.69571 4.60848 8.96321 5.40941C9.31134 6.4516 9.65712 7.49426 10.0049 8.5366C10.0188 8.57816 10.0417 8.6166 10.0635 8.66332L10.1435 8.57019L10.1237 9.76988Z" fill="#4FAA41"/>
<path fill-rule="evenodd" clip-rule="evenodd" d="M7.51196 3.97778C7.53712 4.01044 7.57306 4.0395 7.58556 4.07638C7.85399 4.86616 8.12055 5.65658 8.38524 6.44763C8.71306 7.42778 9.03728 8.40903 9.36556 9.38888C9.56399 9.98106 9.76696 10.5717 9.96978 11.1689L10.061 11.1343L10.0406 11.424L10.022 11.4908C9.99024 11.8078 9.96353 12.1254 9.92478 12.4418C9.9054 12.6004 9.86399 12.7561 9.83259 12.9129C9.80899 12.8787 9.77587 12.8476 9.76306 12.8097C9.1104 10.8645 8.45993 8.91856 7.80853 6.9731C7.60127 6.35396 7.39273 5.73527 7.1829 5.117C7.17228 5.0856 7.14228 5.06091 7.12134 5.0331L7.51196 3.97778Z" fill="#4AA73C"/>
<path fill-rule="evenodd" clip-rule="evenodd" d="M10.1434 8.57014L10.0634 8.66326C10.0415 8.61654 10.0187 8.57811 10.0048 8.53654C9.65697 7.4942 9.31119 6.45154 8.96307 5.40936C8.69525 4.60852 8.42603 3.80815 8.15541 3.00826C8.14275 2.97076 8.11635 2.93811 8.09619 2.90326L8.81885 1.95264C8.84166 1.98295 8.87416 2.00998 8.88588 2.0442C9.0865 2.6317 9.28525 3.21967 9.48307 3.80811C9.66775 4.35779 9.84963 4.90811 10.0365 5.45686C10.049 5.49357 10.0926 5.51951 10.1217 5.55076L10.1232 5.67545L10.1434 8.57014Z" fill="#57AE47"/>
<path fill-rule="evenodd" clip-rule="evenodd" d="M10.1217 5.55072C10.0924 5.51963 10.049 5.49369 10.0365 5.45682C9.84979 4.90807 9.66775 4.35775 9.48307 3.80807C9.28541 3.21962 9.08634 2.63165 8.88588 2.04416C8.87416 2.00994 8.84166 1.98291 8.81885 1.9526C9.05385 1.72244 9.2815 1.484 9.52603 1.26447C9.74338 1.06947 9.91807 0.86041 9.92619 0.552129L9.94338 0.490723L10.0053 0.64666C10.0037 0.72541 9.99666 0.804473 10.0018 0.88291C10.0107 1.01932 10.0328 1.1551 10.0388 1.2915C10.0503 1.54541 10.0557 1.79979 10.0609 2.054C10.0692 2.46307 10.0767 2.87229 10.0817 3.2815L10.1031 5.24307C10.1046 5.34572 10.1154 5.44822 10.1217 5.55072Z" fill="#60B24F"/>
<path fill-rule="evenodd" clip-rule="evenodd" d="M9.83267 12.9128C9.86407 12.7559 9.90548 12.6003 9.92485 12.4417C9.9636 12.1255 9.99032 11.8077 10.022 11.4906L10.03 11.4894L10.0378 11.4908C10.046 11.8875 10.1018 12.2818 10.2042 12.6652C10.1831 12.693 10.1536 12.7175 10.1424 12.7488C10.0556 12.9934 9.97376 13.2402 9.88657 13.4847C9.8747 13.5181 9.84126 13.5442 9.81798 13.5734L9.72876 13.2672L9.83267 12.9128Z" fill="#A9AA88"/>
<path fill-rule="evenodd" clip-rule="evenodd" d="M9.81787 13.5736C9.84115 13.5442 9.87459 13.5183 9.88646 13.4848C9.97365 13.2403 10.0555 12.9936 10.1422 12.7489C10.1533 12.7176 10.183 12.6931 10.2041 12.6653L10.354 12.994C10.3244 13.0359 10.2835 13.0739 10.2671 13.1206L9.98022 13.9631C9.96834 13.997 9.92818 14.0208 9.901 14.0493L9.81787 13.5736Z" fill="#B6B598"/>
<path fill-rule="evenodd" clip-rule="evenodd" d="M9.90112 14.0492C9.92815 14.0206 9.96847 13.9969 9.98034 13.963L10.2672 13.1205C10.2835 13.0737 10.3246 13.0358 10.3541 12.9939L10.4991 13.1175C10.4291 13.1867 10.3902 13.2667 10.4136 13.3678L10.3696 13.512C10.3496 13.5367 10.3205 13.5583 10.3107 13.5866C10.2105 13.8734 10.115 14.1619 10.0141 14.4486C10.0013 14.4848 9.96581 14.5134 9.94097 14.5456L9.90112 14.0492Z" fill="#C2C1A7"/>
<path fill-rule="evenodd" clip-rule="evenodd" d="M9.94085 14.5454C9.96585 14.5132 10.0013 14.4847 10.014 14.4484C10.1149 14.1617 10.2105 13.8732 10.3105 13.5864C10.3204 13.5581 10.3494 13.5367 10.3694 13.5118L10.3087 14.1737C10.2924 14.1925 10.269 14.2089 10.2612 14.2306L10.059 14.81C10.0448 14.8495 10.0176 14.8848 9.99632 14.9218C9.97742 14.8972 9.94367 14.8732 9.94211 14.8476C9.93617 14.7473 9.94039 14.6462 9.94085 14.5454Z" fill="#CECDB7"/>
<path fill-rule="evenodd" clip-rule="evenodd" d="M9.99634 14.9221C10.0176 14.885 10.0448 14.8497 10.059 14.8102L10.2612 14.2308C10.269 14.209 10.2926 14.1927 10.3087 14.174L10.3102 14.6083L10.1648 14.9813L9.99634 14.9221Z" fill="#DBDAC7"/>
<path fill-rule="evenodd" clip-rule="evenodd" d="M10.1648 14.9812L10.3103 14.6083L10.3403 15.0495L10.1648 14.9812Z" fill="#EBE9DC"/>
<path fill-rule="evenodd" clip-rule="evenodd" d="M10.4135 13.3679C10.3902 13.2669 10.429 13.1869 10.499 13.1176L10.5393 13.1451L10.4135 13.3679Z" fill="#CECDB7"/>
<path fill-rule="evenodd" clip-rule="evenodd" d="M10.0378 11.4909L10.0299 11.4895L10.022 11.4908L10.0406 11.4241L10.0378 11.4909Z" fill="#4FAA41"/>
</g>
<defs>
<clipPath id="clip0_404_767">
<rect width="20" height="20" fill="white"/>
</clipPath>
</defs>
</svg>
