<svg width="20" height="20" viewBox="0 0 20 20" fill="none" xmlns="http://www.w3.org/2000/svg">
<g clip-path="url(#clip0_404_738)">
<path d="M15.3125 0H4.6875C2.09867 0 0 2.09867 0 4.6875V15.3125C0 17.9013 2.09867 20 4.6875 20H15.3125C17.9013 20 20 17.9013 20 15.3125V4.6875C20 2.09867 17.9013 0 15.3125 0Z" fill="#023430"/>
<path d="M13.3729 8.40555C12.5497 4.77422 10.8341 3.8075 10.3964 3.12414C10.2159 2.8231 10.056 2.51017 9.91788 2.1875C9.89475 2.51016 9.85225 2.71328 9.57804 2.95797C9.02749 3.44883 6.68921 5.3543 6.49241 9.48031C6.30905 13.3273 9.32054 15.6995 9.71835 15.9447C10.0243 16.0952 10.3969 15.9479 10.5787 15.8097C12.0303 14.8134 14.0137 12.1573 13.3744 8.40555" fill="#10AA50"/>
<path d="M10.0425 13.8961C9.96677 14.8483 9.91247 15.4016 9.71997 15.9457C9.71997 15.9457 9.8463 16.8522 9.93505 17.8124H10.249C10.3239 17.1362 10.4383 16.465 10.5915 15.8021C10.185 15.6021 10.0582 14.7317 10.0425 13.8961Z" fill="#B8C4C2"/>
<path d="M10.5909 15.8027C10.1801 15.6129 10.0613 14.7241 10.043 13.8961C10.1446 12.5303 10.1742 11.16 10.1318 9.79104C10.1102 9.07276 10.1419 3.13807 9.95483 2.26917C10.0828 2.56345 10.2303 2.84888 10.3963 3.12354C10.834 3.80745 12.5501 4.77417 13.3728 8.40549C14.0137 12.1509 12.041 14.7999 10.5909 15.8027Z" fill="#12924F"/>
</g>
<defs>
<clipPath id="clip0_404_738">
<rect width="20" height="20" fill="white"/>
</clipPath>
</defs>
</svg>
