<svg width="20" height="20" viewBox="0 0 20 20" fill="none" xmlns="http://www.w3.org/2000/svg">
<path d="M0.312656 14.134H0.954531V11.5992L1.94828 13.809C2.06547 14.0765 2.22594 14.1711 2.54078 14.1711C2.85562 14.1711 3.01 14.0765 3.12719 13.809L4.12094 11.5992V14.134H4.76281V11.6034C4.76281 11.3565 4.66406 11.237 4.46031 11.1754C3.97266 11.0233 3.64547 11.155 3.49734 11.4842L2.52219 13.6651L1.57797 11.484C1.43594 11.155 1.10266 11.0233 0.615 11.1753C0.41125 11.237 0.3125 11.3564 0.3125 11.6033L0.312656 14.134ZM5.29672 12.0706H5.93844V13.4672C5.9325 13.5429 5.96281 13.7211 6.31437 13.7267C6.49375 13.7295 7.69906 13.7267 7.71031 13.7267V12.0637H8.35359C8.35656 12.0637 8.35297 14.3315 8.35297 14.3409C8.35641 14.9003 7.65906 15.0217 7.3375 15.0311H5.31062V14.5992C5.31406 14.5992 7.33609 14.5997 7.34109 14.599C7.75438 14.5554 7.70547 14.3501 7.70531 14.2811V14.1126H6.34109C5.70641 14.1069 5.30203 13.8298 5.29688 13.5111C5.29656 13.4819 5.31078 12.0847 5.29672 12.0706Z" fill="#00618A"/>
<path d="M8.84839 14.134H10.694C10.9101 14.134 11.1201 14.0889 11.2867 14.0108C11.5643 13.8833 11.7001 13.7104 11.7001 13.4839V13.0148C11.7001 12.8297 11.5459 12.6567 11.2434 12.5417C11.0829 12.4798 10.8853 12.4472 10.6939 12.4472H9.91604C9.65683 12.4472 9.53339 12.369 9.50261 12.1962C9.49651 12.1756 9.49651 12.1592 9.49651 12.1386V11.8464C9.49651 11.83 9.49651 11.8134 9.50261 11.7929C9.53339 11.6612 9.60136 11.6242 9.82979 11.6036L9.89151 11.5995H11.7248V11.1717H9.92245C9.66323 11.1717 9.52745 11.1881 9.40401 11.2251C9.02136 11.3445 8.85448 11.5337 8.85448 11.8629V12.2373C8.85448 12.5254 9.18183 12.7723 9.73104 12.83C9.79292 12.8339 9.85448 12.8383 9.9162 12.8383H10.5829C10.6076 12.8383 10.6323 12.8383 10.6509 12.8422C10.8546 12.8586 10.9409 12.8958 11.0028 12.9697C11.0186 12.9843 11.0312 13.0021 11.0397 13.022C11.0482 13.0418 11.0524 13.0632 11.052 13.0848V13.4594C11.052 13.5045 11.0212 13.5622 10.9595 13.6115C10.904 13.6609 10.8114 13.6939 10.6879 13.7022L10.62 13.7062H8.84839V14.134ZM15.7048 13.3894C15.7048 13.8295 16.032 14.0764 16.6923 14.1259C16.754 14.13 16.8157 14.134 16.8775 14.134H18.5503V13.7062H16.8653C16.4887 13.7062 16.3468 13.6115 16.3468 13.3851V11.1714H15.705L15.7048 13.3894ZM12.1098 13.4115V11.8858C12.1098 11.4983 12.382 11.2631 12.9201 11.1889C12.9774 11.1807 13.0353 11.1765 13.0932 11.1765H14.3118C14.3737 11.1765 14.4293 11.1806 14.491 11.1889C15.0292 11.2631 15.3015 11.4981 15.3015 11.8858V13.4115C15.3015 13.7262 15.1859 13.8944 14.9195 14.004L15.552 14.5748H14.8065L14.295 14.1129L13.78 14.1456H13.0932C12.9657 14.1448 12.8388 14.1268 12.716 14.092C12.3078 13.9808 12.1098 13.7662 12.1098 13.4115ZM12.8026 13.3745C12.8026 13.3951 12.8087 13.4159 12.815 13.4406C12.852 13.6179 13.0192 13.7169 13.2726 13.7169H13.8557L13.3201 13.2333H14.0656L14.5326 13.6551C14.6189 13.609 14.6754 13.539 14.6953 13.4489C14.7014 13.4283 14.7014 13.4076 14.7014 13.387V11.9233C14.7014 11.9069 14.7014 11.8861 14.6953 11.8654C14.6581 11.7004 14.491 11.6058 14.2437 11.6058H13.2725C12.9881 11.6058 12.8025 11.7295 12.8025 11.9233L12.8026 13.3745Z" fill="#E48E00"/>
<path d="M19.1151 10.4613C18.7206 10.4505 18.4192 10.4872 18.1614 10.5958C18.0881 10.6267 17.9714 10.6275 17.9595 10.7192C17.9996 10.7616 18.0059 10.8245 18.0379 10.8764C18.0995 10.9759 18.2034 11.1094 18.296 11.1792C18.3971 11.2556 18.5015 11.3375 18.6103 11.4037C18.8032 11.5216 19.0189 11.5887 19.205 11.7066C19.3145 11.7762 19.4232 11.8637 19.5303 11.9423C19.5832 11.9809 19.6185 12.0414 19.6875 12.0656V12.0545C19.6514 12.0086 19.642 11.9455 19.6089 11.8973L19.4629 11.7514C19.3203 11.562 19.1393 11.3959 18.9467 11.2578C18.7932 11.1477 18.4498 10.9987 18.3857 10.8202L18.3745 10.8091C18.4832 10.7967 18.6107 10.7573 18.711 10.7305C18.8798 10.6852 19.0306 10.6969 19.2048 10.6519L19.4404 10.5844V10.5397C19.3525 10.4494 19.2895 10.3297 19.1935 10.248C18.9425 10.0341 18.6681 9.82031 18.3857 9.64187C18.2292 9.54312 18.0356 9.47891 17.8695 9.39516C17.8139 9.36687 17.7157 9.35234 17.6787 9.30531C17.5914 9.19422 17.544 9.05344 17.4767 8.92391C17.3328 8.64408 17.1981 8.35966 17.0728 8.07109C16.9878 7.87656 16.9321 7.68469 16.826 7.51016C16.3165 6.6725 15.7681 6.16687 14.9185 5.67C14.7378 5.56422 14.5201 5.52266 14.2903 5.46812L13.92 5.44562C13.8448 5.41422 13.7664 5.32203 13.6956 5.27734C13.414 5.09953 12.6921 4.71281 12.4837 5.22141C12.3521 5.54234 12.6806 5.85547 12.7979 6.01812C12.8803 6.13219 12.9859 6.26 13.0448 6.38828C13.0835 6.47266 13.0901 6.55719 13.1234 6.64641C13.2048 6.86609 13.2759 7.10531 13.3814 7.30828C13.4346 7.41109 13.4935 7.51937 13.5609 7.61125C13.6021 7.6675 13.6731 7.6925 13.6842 7.77953C13.615 7.87641 13.6109 8.02703 13.572 8.14969C13.3967 8.70266 13.4628 9.39 13.7179 9.79922C13.7962 9.925 13.9806 10.1944 14.234 10.0909C14.4557 10.0006 14.4064 9.72078 14.4698 9.47375C14.4842 9.41797 14.4753 9.37672 14.5034 9.33922V9.35047L14.7054 9.75437C14.855 9.99516 15.1201 10.2466 15.345 10.4164C15.4615 10.5044 15.5534 10.6567 15.704 10.7081V10.6967H15.6929C15.6635 10.6512 15.6181 10.6325 15.5806 10.5958C15.4928 10.5097 15.3951 10.4028 15.3226 10.3041C15.1181 10.0266 14.9375 9.72266 14.7728 9.40641C14.6942 9.25547 14.6259 9.08891 14.5596 8.93516C14.534 8.87594 14.5343 8.78625 14.4812 8.75578C14.4084 8.86828 14.3017 8.95937 14.2454 9.09234C14.1557 9.30484 14.1442 9.56406 14.1109 9.83281L14.0884 9.84391C13.932 9.80625 13.8771 9.64531 13.819 9.50734C13.6721 9.15844 13.6448 8.59641 13.7742 8.19469C13.8076 8.09062 13.9587 7.76328 13.8975 7.66719C13.8682 7.57141 13.7718 7.51609 13.7181 7.44266C13.6476 7.34439 13.5874 7.23909 13.5385 7.12844C13.4182 6.85641 13.3621 6.55094 13.2357 6.27578C13.1751 6.14422 13.0729 6.01125 12.9889 5.89437C12.8959 5.76469 12.7917 5.66937 12.7195 5.51281C12.6939 5.45719 12.659 5.36797 12.697 5.31078C12.709 5.27219 12.7264 5.25609 12.7645 5.24344C12.8295 5.19328 13.0107 5.26016 13.0785 5.28828C13.2585 5.36312 13.4087 5.43422 13.5612 5.53516C13.6343 5.58375 13.7082 5.6775 13.7968 5.70344H13.8978C14.0557 5.73969 14.2328 5.71453 14.3803 5.75937C14.6412 5.83875 14.875 5.96203 15.0871 6.09609C15.7339 6.50453 16.2625 7.08578 16.6243 7.77922C16.6825 7.89094 16.7078 7.99734 16.7589 8.11578C16.8623 8.35453 16.9926 8.60031 17.0954 8.83391C17.1981 9.06687 17.2982 9.30203 17.4434 9.49594C17.5196 9.59781 17.8143 9.6525 17.9482 9.70906C18.0421 9.74875 18.1959 9.79016 18.2848 9.84359C18.4546 9.94609 18.6193 10.0681 18.7785 10.1803C18.8581 10.2369 19.1029 10.3598 19.1151 10.4613ZM14.0996 6.18641C14.0316 6.18529 13.9637 6.19285 13.8976 6.20891V6.22H13.9089C13.9481 6.30078 14.0173 6.35266 14.0659 6.42203L14.1782 6.65766L14.1893 6.64656C14.2589 6.59766 14.2906 6.51937 14.2903 6.39969C14.2623 6.37031 14.2582 6.33359 14.2342 6.29875C14.2023 6.25187 14.1401 6.22562 14.0996 6.18641Z" fill="#00618A"/>
</svg>
