<svg width="20" height="20" viewBox="0 0 20 20" fill="none" xmlns="http://www.w3.org/2000/svg">
<path d="M17.8633 12.617C17.818 12.617 17.773 12.6051 17.7333 12.582L17.3193 12.337C17.2574 12.3025 17.2876 12.2901 17.308 12.2831C17.3905 12.2543 17.4073 12.2476 17.4952 12.1979C17.5044 12.1928 17.5165 12.1947 17.526 12.2003L17.844 12.3892C17.8499 12.3924 17.8565 12.394 17.8632 12.394C17.8699 12.394 17.8765 12.3924 17.8824 12.3892L19.1226 11.6734C19.1284 11.67 19.1332 11.6651 19.1366 11.6592C19.1399 11.6533 19.1417 11.6466 19.1416 11.6398V10.2086C19.1416 10.2017 19.1399 10.1949 19.1365 10.1889C19.1331 10.1829 19.1283 10.1779 19.1224 10.1743L17.8827 9.45919C17.8769 9.45596 17.8703 9.45427 17.8636 9.45427C17.8569 9.45427 17.8503 9.45596 17.8444 9.45919L16.6049 10.1745C16.599 10.1781 16.5942 10.183 16.5907 10.189C16.5873 10.195 16.5855 10.2017 16.5854 10.2086V11.6398C16.5854 11.6536 16.593 11.6665 16.6049 11.6729L16.9446 11.8693C17.129 11.9614 17.2419 11.8529 17.2419 11.7439V10.3306C17.2419 10.3108 17.258 10.295 17.2779 10.295H17.4352C17.4548 10.295 17.471 10.3108 17.471 10.3306V11.7439C17.471 11.9898 17.3371 12.1309 17.1038 12.1309C17.0321 12.1309 16.9757 12.1309 16.8182 12.0534L16.493 11.8662C16.4535 11.8432 16.4207 11.8101 16.3979 11.7704C16.375 11.7307 16.363 11.6858 16.363 11.64V10.2087C16.363 10.1158 16.4126 10.029 16.493 9.98279L17.7332 9.26607C17.7732 9.24431 17.8179 9.23291 17.8634 9.23291C17.9089 9.23291 17.9537 9.24431 17.9937 9.26607L19.2338 9.98279C19.3141 10.0292 19.364 10.1159 19.364 10.2087V11.64C19.3639 11.6858 19.3518 11.7307 19.329 11.7704C19.3062 11.8101 19.2734 11.8431 19.2338 11.8662L17.9937 12.5822C17.9541 12.6051 17.9091 12.6172 17.8633 12.617ZM18.2466 11.6309C17.7037 11.6309 17.5901 11.3817 17.5901 11.1728C17.5901 11.1633 17.5939 11.1542 17.6006 11.1475C17.6074 11.1408 17.6165 11.137 17.626 11.137H17.7863C17.7949 11.137 17.8032 11.14 17.8097 11.1456C17.8163 11.1511 17.8206 11.1588 17.8219 11.1673C17.846 11.3306 17.9183 11.4129 18.2466 11.4129C18.5077 11.4129 18.619 11.3539 18.619 11.2151C18.619 11.1351 18.5874 11.0759 18.1815 11.0361C17.8421 11.0025 17.6323 10.9276 17.6323 10.6559C17.6323 10.4058 17.8432 10.2564 18.1966 10.2564C18.594 10.2564 18.7905 10.3943 18.8154 10.6903C18.8158 10.6953 18.8151 10.7003 18.8135 10.705C18.8119 10.7097 18.8094 10.7141 18.806 10.7178C18.8026 10.7213 18.7985 10.7242 18.794 10.7261C18.7895 10.7281 18.7847 10.7291 18.7798 10.7292H18.6187C18.6105 10.7292 18.6026 10.7264 18.5963 10.7213C18.59 10.7163 18.5856 10.7092 18.5838 10.7012C18.5451 10.5293 18.4513 10.4745 18.1965 10.4745C17.9113 10.4745 17.8782 10.574 17.8782 10.6483C17.8782 10.7384 17.9173 10.7647 18.3024 10.8156C18.6835 10.8661 18.8646 10.9373 18.8646 11.2053C18.8648 11.4761 18.6394 11.6309 18.2466 11.6309Z" fill="#83CD29"/>
<path d="M15.3097 10.6922C15.3586 10.6636 15.3887 10.6114 15.3887 10.5547V10.1869C15.3887 10.1304 15.3587 10.0782 15.3097 10.0496L14.0028 9.29082C13.9786 9.27677 13.9512 9.26934 13.9232 9.26929C13.8953 9.26923 13.8678 9.27655 13.8436 9.29051L12.5286 10.0497C12.5045 10.0637 12.4845 10.0837 12.4705 10.1079C12.4566 10.132 12.4492 10.1594 12.4492 10.1872V11.7054C12.4492 11.7624 12.4798 11.8152 12.5295 11.8435L13.8362 12.588C13.8844 12.6157 13.9434 12.6158 13.992 12.5889L14.7823 12.1496C14.7946 12.1427 14.8049 12.1328 14.8121 12.1207C14.8193 12.1086 14.8231 12.0948 14.8232 12.0807C14.8233 12.0666 14.8197 12.0528 14.8126 12.0406C14.8056 12.0284 14.7955 12.0183 14.7833 12.0113L13.4602 11.2519C13.448 11.245 13.4379 11.235 13.4309 11.2229C13.4239 11.2109 13.4202 11.1971 13.4202 11.1832V10.7072C13.4202 10.6788 13.4353 10.6527 13.4598 10.6386L13.8719 10.4011C13.8839 10.3942 13.8976 10.3905 13.9115 10.3905C13.9254 10.3905 13.9391 10.3942 13.9511 10.4011L14.3631 10.6386C14.3752 10.6456 14.3853 10.6555 14.3923 10.6676C14.3992 10.6796 14.4029 10.6933 14.403 10.7072V11.0816C14.4029 11.0956 14.4065 11.1094 14.4135 11.1215C14.4205 11.1337 14.4305 11.1437 14.4426 11.1507C14.4548 11.1577 14.4685 11.1613 14.4825 11.1613C14.4965 11.1612 14.5103 11.1575 14.5223 11.1504L15.3097 10.6922Z" fill="#404137"/>
<path d="M13.9037 10.6209C13.9084 10.6183 13.9136 10.6169 13.919 10.6169C13.9243 10.6169 13.9295 10.6183 13.9342 10.6209L14.1865 10.7667C14.1959 10.7722 14.2017 10.7823 14.2017 10.7931V11.0845C14.2017 11.0954 14.1959 11.1054 14.1865 11.1109L13.9342 11.2565C13.9296 11.2592 13.9243 11.2606 13.919 11.2606C13.9136 11.2606 13.9084 11.2592 13.9037 11.2565L13.6515 11.1109C13.6469 11.1083 13.643 11.1044 13.6403 11.0998C13.6376 11.0951 13.6362 11.0899 13.6362 11.0845V10.7931C13.6362 10.7823 13.642 10.7722 13.6515 10.7667L13.9037 10.6209Z" fill="#83CD29"/>
<path d="M10.4817 11.2272C10.4817 11.2413 10.4742 11.2544 10.4619 11.2616L10.0103 11.5219C10.0043 11.5255 9.99744 11.5273 9.99047 11.5273C9.98349 11.5273 9.97664 11.5255 9.97062 11.5219L9.51906 11.2616C9.51304 11.2581 9.50804 11.2531 9.50456 11.2471C9.50107 11.241 9.49923 11.2342 9.49922 11.2272V10.7057C9.49922 10.6916 9.50687 10.6783 9.51906 10.6711L9.97062 10.4105C9.97664 10.4069 9.98353 10.405 9.99055 10.405C9.99756 10.405 10.0044 10.4069 10.0105 10.4105L10.4622 10.6711C10.4682 10.6747 10.4731 10.6798 10.4766 10.6858C10.48 10.6919 10.4819 10.6987 10.4819 10.7057L10.4817 11.2272ZM10.6037 7.36537C10.5916 7.35875 10.578 7.35539 10.5642 7.3556C10.5504 7.35581 10.5369 7.3596 10.525 7.36659C10.5131 7.37357 10.5032 7.38353 10.4963 7.39547C10.4894 7.40741 10.4857 7.42095 10.4856 7.43474V9.45271C10.4856 9.46244 10.483 9.472 10.4782 9.48043C10.4733 9.48887 10.4664 9.4959 10.458 9.50084C10.4495 9.50567 10.4399 9.50822 10.4302 9.50822C10.4204 9.50822 10.4108 9.50567 10.4023 9.50084L10.073 9.31099C10.0488 9.2971 10.0215 9.28979 9.99367 9.28979C9.96584 9.28979 9.93849 9.2971 9.91437 9.31099L8.59906 10.0701C8.5749 10.084 8.55483 10.1041 8.54087 10.1282C8.52691 10.1524 8.51955 10.1798 8.51953 10.2077V11.7263C8.51953 11.783 8.54984 11.8354 8.59891 11.864L9.91422 12.6235C9.96328 12.6519 10.0239 12.6519 10.0731 12.6235L11.3887 11.864C11.4129 11.85 11.4329 11.8299 11.4468 11.8057C11.4607 11.7816 11.4681 11.7542 11.4681 11.7263V7.94084C11.4681 7.88334 11.4369 7.83021 11.3867 7.80209L10.6037 7.36537Z" fill="#404137"/>
<path d="M5.97478 9.2823C5.99891 9.26834 6.02629 9.26099 6.05416 9.26099C6.08203 9.26099 6.10941 9.26834 6.13354 9.2823L7.44885 10.0412C7.49791 10.0696 7.52822 10.1221 7.52822 10.1789V11.6979C7.52822 11.7546 7.49791 11.8071 7.44885 11.8356L6.13369 12.5951C6.10952 12.609 6.08212 12.6163 6.05424 12.6163C6.02635 12.6163 5.99896 12.609 5.97478 12.5951L4.65994 11.8356C4.63583 11.8216 4.6158 11.8015 4.60187 11.7774C4.58795 11.7532 4.5806 11.7258 4.58057 11.6979V10.1787C4.58057 10.1221 4.61088 10.0696 4.65994 10.0412L5.97478 9.2823Z" fill="#83CD29"/>
<path d="M3.58284 10.1662C3.58284 10.109 3.55284 10.0565 3.50347 10.0282L2.18862 9.27151C2.16654 9.25871 2.14163 9.25157 2.11612 9.25073H2.10253C2.07702 9.25159 2.05212 9.25873 2.03003 9.27151L0.715029 10.0282C0.690838 10.0422 0.670756 10.0624 0.656796 10.0866C0.642837 10.1108 0.635492 10.1382 0.635498 10.1662L0.638311 12.2037C0.638311 12.2321 0.653154 12.2585 0.677998 12.2723C0.689894 12.2795 0.703539 12.2833 0.717451 12.2833C0.731363 12.2833 0.745008 12.2795 0.756904 12.2723L1.53815 11.8248C1.58753 11.7954 1.61769 11.7437 1.61769 11.687V10.7351C1.61769 10.6782 1.64769 10.6259 1.6969 10.5975L2.02972 10.4059C2.05377 10.3918 2.08119 10.3844 2.10909 10.3845C2.13628 10.3845 2.16409 10.3914 2.18831 10.4059L2.52081 10.5975C2.57003 10.6259 2.60034 10.6782 2.60034 10.7351V11.687C2.60034 11.7437 2.63081 11.7957 2.67987 11.8248L3.46112 12.2723C3.47317 12.2792 3.48681 12.2828 3.50069 12.2827C3.51456 12.2827 3.52819 12.279 3.5402 12.2721C3.55222 12.2652 3.5622 12.2552 3.56916 12.2432C3.57612 12.2312 3.57982 12.2176 3.57987 12.2037L3.58284 10.1662Z" fill="#404137"/>
</svg>
