<svg width="21" height="20" viewBox="0 0 21 20" fill="none" xmlns="http://www.w3.org/2000/svg">
<g clip-path="url(#clip0_404_723)">
<path d="M3.62664 0H16.8534C18.8586 0 20.48 1.62136 20.48 3.62664V16.3414C20.48 18.3466 18.8586 19.968 16.8534 19.968H3.62664C1.62136 19.968 0 18.3466 0 16.3414V3.62664C0 1.62136 1.62136 0 3.62664 0Z" fill="#00005B"/>
<path d="M4.86401 14.0032V5.22243C4.86401 5.16267 4.88961 5.12859 4.94937 5.12859L5.07321 5.12835L5.16905 5.12755L5.23665 5.12627L5.30865 5.12443L5.38601 5.12171L5.42721 5.12003C5.50401 5.11683 5.58201 5.11483 5.66161 5.11315L5.90601 5.10803C5.93377 5.10739 5.96185 5.10667 5.99009 5.10579L6.07569 5.10299C6.15249 5.10011 6.23121 5.09819 6.31185 5.09659L6.55929 5.09219L6.73057 5.08843L6.81817 5.08587C6.99449 5.08027 7.16705 5.07835 7.33833 5.07771L7.59465 5.07739C8.29441 5.07739 8.87465 5.16267 9.35257 5.34187C9.78094 5.48736 10.1715 5.72639 10.496 6.04163C10.771 6.3175 10.9834 6.64926 11.119 7.01443C11.247 7.37283 11.3152 7.73979 11.3152 8.12379C11.3152 8.85763 11.1446 9.46347 10.8032 9.94139C10.4619 10.4192 9.98401 10.7776 9.42937 10.9824C8.86841 11.1887 8.25169 11.2672 7.57913 11.2723H7.33521L7.24025 11.2713L7.17937 11.2699L7.14353 11.2684L7.11137 11.2664L7.08265 11.264C7.06423 11.2622 7.04578 11.2608 7.02729 11.2599L6.98569 11.258L6.94009 11.2568L6.86401 11.2558L6.71577 11.2555V13.9947C6.72425 14.0544 6.68161 14.1056 6.62185 14.1142H4.96641C4.89817 14.1142 4.86401 14.08 4.86401 14.0032ZM6.72425 6.77547V9.64267L6.82457 9.64987C6.90193 9.65579 6.97947 9.6591 7.05705 9.65979H7.50937C7.84217 9.65979 8.17497 9.60859 8.49065 9.50619C8.76377 9.42939 9.00265 9.26723 9.19041 9.05387C9.36961 8.84059 9.45497 8.55043 9.45497 8.17499C9.463 7.90831 9.3949 7.64486 9.25865 7.41547C9.11969 7.20291 8.92577 7.03731 8.69209 6.94123L8.66137 6.92907C8.34561 6.80107 8.00425 6.74987 7.65441 6.75843L7.45713 6.75867L7.36441 6.75923L7.27585 6.76043L7.19177 6.76235C7.15081 6.76347 7.11153 6.76499 7.07417 6.76699C7.05583 6.76607 7.03749 6.76533 7.01913 6.76475L6.96801 6.76363C6.96001 6.76354 6.95201 6.76349 6.94401 6.76347L6.89873 6.76371L6.85761 6.76483L6.83857 6.76563L6.80361 6.76763L6.77289 6.77003L6.75905 6.77131L6.73481 6.77411L6.72425 6.77547ZM12.5099 7.27043H14.0032C14.0838 7.27043 14.1492 7.32371 14.1778 7.39435L14.1824 7.40699C14.208 7.47523 14.2251 7.54347 14.2336 7.62027C14.2507 7.70563 14.2678 7.79947 14.2763 7.88483L14.2835 7.96739C14.2891 8.03787 14.2934 8.11283 14.2934 8.19203C14.5377 7.9067 14.8308 7.66701 15.159 7.48411L15.2064 7.45819C15.599 7.23627 16.0512 7.12539 16.5035 7.12539C16.5632 7.11683 16.6144 7.15947 16.623 7.21923V8.91739C16.623 8.98563 16.5803 9.01123 16.4864 9.01123C16.1997 9.00323 15.9056 9.02507 15.6248 9.08347L15.5648 9.09659C15.3174 9.14779 15.0784 9.22459 14.848 9.32699C14.6859 9.40379 14.5323 9.50619 14.4128 9.64267V13.9947C14.4128 14.08 14.3787 14.1142 14.3019 14.1142H12.6208C12.5526 14.1227 12.4928 14.08 12.4843 14.0118V9.25019C12.4843 9.04539 12.4843 8.83203 12.4758 8.61019L12.4707 8.44379L12.4638 8.11099C12.4624 8.05547 12.4608 8.00003 12.4587 7.94459C12.4587 7.74827 12.4416 7.56059 12.4246 7.36427C12.416 7.32163 12.4416 7.27899 12.4843 7.27043C12.4843 7.26315 12.4968 7.26211 12.5058 7.26723L12.5099 7.27043Z" fill="#9999FF"/>
</g>
<defs>
<clipPath id="clip0_404_723">
<rect width="20.48" height="20" fill="white"/>
</clipPath>
</defs>
</svg>
