<svg width="20" height="20" viewBox="0 0 20 20" fill="none" xmlns="http://www.w3.org/2000/svg">
<g clip-path="url(#clip0_404_701)">
<path d="M16.6797 0H3.32031C1.48655 0 0 1.52223 0 3.4V16.568C0 18.4458 1.48655 19.968 3.32031 19.968H16.6797C18.5134 19.968 20 18.4458 20 16.568V3.4C20 1.52223 18.5134 0 16.6797 0Z" fill="#001E36"/>
<path d="M4.50342 14.0028V5.22379C4.50342 5.15979 4.53029 5.12763 4.58396 5.12763L4.66889 5.12739L4.81404 5.12579L5.01576 5.12171L5.69154 5.10707L6.41615 5.09331C6.671 5.08883 6.92365 5.08643 7.17412 5.08643C7.85381 5.08643 8.42623 5.17347 8.89146 5.34747C9.31112 5.49282 9.69385 5.73218 10.0118 6.04811C10.2813 6.32197 10.4896 6.65245 10.6222 7.01675C10.7478 7.37124 10.8114 7.74559 10.8101 8.12267C10.8101 8.85555 10.6446 9.46003 10.3137 9.93619C9.98996 10.4007 9.53847 10.756 9.01678 10.9567L8.97201 10.9735C8.42725 11.1815 7.82396 11.2567 7.16232 11.2615L7.05951 11.2618L6.90693 11.261L6.82998 11.2599L6.7442 11.2578L6.69248 11.2557L6.66107 11.254L6.58381 11.2511L6.48936 11.2491L6.34717 11.2481L6.31553 11.248V13.9891C6.31788 14.0059 6.31638 14.023 6.31114 14.0391C6.3059 14.0552 6.29707 14.0698 6.28535 14.0818C6.27363 14.0938 6.25934 14.1029 6.24361 14.1083C6.22788 14.1136 6.21115 14.1152 6.19475 14.1127H4.5974C4.53467 14.1127 4.50342 14.0763 4.50342 14.0028ZM6.31561 6.77627V9.63963C6.42268 9.64847 6.53006 9.65306 6.63748 9.65339H7.08029C7.38559 9.65233 7.68911 9.60579 7.98131 9.51523L8.03959 9.49659C8.30542 9.41573 8.54295 9.25834 8.72389 9.04315C8.89201 8.84011 8.97912 8.56035 8.98514 8.20379L8.98553 8.16387C8.99256 7.89811 8.92506 7.63587 8.79092 7.40827C8.64994 7.18815 8.44617 7.01784 8.20732 6.92051C7.89545 6.79638 7.56231 6.73799 7.22787 6.74883L7.05771 6.74931L6.95037 6.75027L6.84795 6.75163L6.70342 6.75451L6.59795 6.75755L6.54318 6.75963L6.46998 6.76315L6.40764 6.76707L6.37209 6.76995L6.34139 6.77299L6.32787 6.77459L6.31561 6.77627ZM15.9976 9.11899C15.7636 8.99583 15.5153 8.90331 15.2587 8.84363L15.1994 8.83051C14.9171 8.76417 14.6289 8.72763 14.3393 8.72147L14.2669 8.72059C14.0972 8.71588 13.9277 8.73671 13.7638 8.78243C13.6595 8.80618 13.5668 8.867 13.5021 8.95411C13.4584 9.0238 13.4351 9.10487 13.4351 9.18771C13.4375 9.26804 13.4658 9.34529 13.5155 9.40747C13.5867 9.49274 13.6723 9.5642 13.7683 9.61843L13.7973 9.63419C13.9886 9.73966 14.1857 9.83368 14.3876 9.91579C14.8379 10.0701 15.2682 10.2801 15.6689 10.5409C15.9419 10.7174 16.1679 10.9605 16.3264 11.2485C16.4597 11.5212 16.5264 11.8228 16.5209 12.1277C16.5289 12.5303 16.4166 12.9258 16.1989 13.2612C15.9658 13.6016 15.6422 13.8663 15.2664 14.0236C14.8729 14.2007 14.3896 14.2922 13.8166 14.2982L13.7571 14.2985C13.4019 14.3022 13.0472 14.2704 12.698 14.2035L12.6233 14.1886C12.3294 14.1334 12.0432 14.0411 11.7714 13.9138C11.7441 13.8993 11.721 13.8777 11.7045 13.8512C11.688 13.8246 11.6787 13.794 11.6775 13.7626V12.2651C11.6759 12.2506 11.6781 12.2359 11.6841 12.2226C11.69 12.2093 11.6993 12.1979 11.7111 12.1895C11.7226 12.1829 11.7358 12.18 11.749 12.1812C11.7622 12.1824 11.7747 12.1877 11.7848 12.1964C12.1058 12.3902 12.4543 12.5316 12.8179 12.6155C13.1383 12.6977 13.467 12.7415 13.7973 12.746C14.1103 12.746 14.3406 12.7047 14.4883 12.6223C14.5549 12.5911 14.6113 12.5407 14.6506 12.4773C14.6899 12.4139 14.7104 12.3402 14.7097 12.2651C14.7097 12.1463 14.6426 12.0317 14.5084 11.9217C14.4522 11.8756 14.3715 11.8255 14.2665 11.7713L14.2162 11.746L14.1626 11.7202L14.1345 11.7071L14.0756 11.6803C14.0654 11.6758 14.0552 11.6712 14.0449 11.6667L13.9808 11.6392L13.9475 11.6252L13.8783 11.5968L13.8423 11.5824L13.7679 11.5531L13.69 11.5232C13.2687 11.3731 12.8692 11.1651 12.5026 10.905C12.2403 10.7182 12.0244 10.4712 11.872 10.1837C11.7401 9.91298 11.6734 9.61384 11.6775 9.31131C11.6767 8.9478 11.7742 8.59117 11.9592 8.28091C12.1701 7.93931 12.4729 7.66731 12.8313 7.49787C13.2248 7.29651 13.7167 7.19571 14.3071 7.19555C14.6529 7.1927 14.9983 7.21798 15.3402 7.27115C15.5878 7.3033 15.8298 7.37033 16.0594 7.47035C16.0964 7.48123 16.1262 7.50915 16.1399 7.54595C16.149 7.57947 16.1535 7.61411 16.1533 7.64899V9.03659C16.1553 9.06939 16.1399 9.10083 16.1131 9.11899C16.0952 9.12812 16.0754 9.13287 16.0554 9.13287C16.0353 9.13287 16.0156 9.12812 15.9976 9.11899Z" fill="#31A8FF"/>
</g>
<defs>
<clipPath id="clip0_404_701">
<rect width="20" height="20" fill="white"/>
</clipPath>
</defs>
</svg>
