<svg width="23" height="20" viewBox="0 0 23 20" fill="none" xmlns="http://www.w3.org/2000/svg">
<g clip-path="url(#clip0_404_726)">
<path d="M18.4654 6.47577C18.2264 6.39378 17.9854 6.31782 17.7426 6.24797C17.7834 6.0813 17.8209 5.91665 17.8542 5.7549C18.4014 3.09867 18.0437 0.958757 16.8219 0.254195C15.6504 -0.421243 13.7345 0.283055 11.7996 1.967C11.6089 2.13326 11.4224 2.30431 11.2404 2.47998C11.1185 2.36317 10.9945 2.24861 10.8684 2.13639C8.84046 0.335862 6.80783 -0.422998 5.5873 0.283581C4.41687 0.961125 4.07029 2.97279 4.56292 5.49016C4.61193 5.73948 4.66727 5.98751 4.72888 6.23402C4.44116 6.31577 4.16353 6.40279 3.89783 6.49542C1.52029 7.32437 0.00195312 8.62341 0.00195312 9.97086C0.00195312 11.3625 1.63195 12.7584 4.10827 13.6048C4.30903 13.6731 4.51146 13.7365 4.71537 13.7947C4.64915 14.0602 4.59035 14.3275 4.53906 14.5963C4.06941 17.07 4.43616 19.0341 5.60344 19.7074C6.80906 20.4026 8.83257 19.6881 10.8028 17.9657C10.9626 17.8257 11.1188 17.6817 11.2714 17.5338C11.4686 17.7241 11.671 17.9088 11.8784 18.0877C13.787 19.73 15.672 20.3931 16.8381 19.7181C18.0426 19.0208 18.4341 16.9108 17.9258 14.3437C17.8858 14.1426 17.8409 13.9424 17.7912 13.7435C17.9333 13.7014 18.0727 13.6581 18.2087 13.613C20.7831 12.7601 22.4581 11.3811 22.4581 9.97086C22.4581 8.61849 20.8907 7.31069 18.4654 6.47577ZM17.907 12.7024C17.7842 12.7431 17.6583 12.7823 17.5298 12.8204C17.2456 11.9207 16.8621 10.964 16.3927 9.97551C16.8406 9.0106 17.2094 8.06612 17.4856 7.17227C17.7154 7.23876 17.9383 7.30884 18.1532 7.38279C20.2313 8.09823 21.4988 9.15586 21.4988 9.97086C21.4988 10.8389 20.1298 11.9659 17.907 12.7024ZM16.9848 14.53C17.2095 15.6651 17.2415 16.6914 17.0927 17.4938C16.959 18.2147 16.69 18.6953 16.3574 18.8879C15.6498 19.2975 14.1363 18.7651 12.5041 17.3605C12.3112 17.1941 12.1229 17.0224 11.9395 16.8456C12.5723 16.1536 13.2047 15.3491 13.8219 14.4556C14.9075 14.3593 15.9331 14.2017 16.8632 13.9867C16.908 14.1668 16.9485 14.348 16.9848 14.53ZM7.65774 18.8171C6.96634 19.0612 6.41564 19.0682 6.08274 18.8763C5.37441 18.4678 5.07994 16.8907 5.4816 14.7752C5.52935 14.5253 5.58402 14.2767 5.64555 14.0297C6.56537 14.2332 7.58353 14.3795 8.67169 14.4678C9.29309 15.3421 9.94371 16.1457 10.5994 16.8494C10.4601 16.9842 10.3174 17.1156 10.1716 17.2434C9.30029 18.005 8.42722 18.5453 7.65774 18.8171ZM4.41862 12.6971C3.32362 12.3228 2.41932 11.8364 1.7995 11.3056C1.24248 10.8287 0.961339 10.3551 0.961339 9.97086C0.961339 9.15314 2.18037 8.11016 4.21362 7.4013C4.46037 7.31534 4.71862 7.23419 4.9866 7.15805C5.26765 8.07209 5.63625 9.02779 6.08108 9.9942C5.63046 10.9749 5.2566 11.9459 4.97283 12.8707C4.7867 12.8174 4.60191 12.7595 4.41862 12.6971ZM5.50441 5.30586C5.08239 3.14911 5.36265 1.52218 6.06801 1.11384C6.81923 0.678932 8.48046 1.29902 10.2314 2.85376C10.3456 2.95537 10.4579 3.05904 10.5684 3.16472C9.9159 3.86534 9.27125 4.66297 8.65537 5.53209C7.59923 5.62998 6.58827 5.78718 5.6588 5.99779C5.60153 5.76851 5.55005 5.53774 5.50441 5.30586ZM15.191 7.69779C14.9714 7.31857 14.7438 6.94413 14.5081 6.57472C15.2246 6.66534 15.9111 6.7856 16.5557 6.93262C16.3622 7.55297 16.121 8.20148 15.837 8.86639C15.6295 8.47259 15.4141 8.08298 15.191 7.69779ZM11.2408 3.85034C11.6833 4.32972 12.1264 4.8649 12.5623 5.4456C11.6781 5.40384 10.7924 5.40366 9.90818 5.44507C10.3445 4.86972 10.7914 4.33525 11.2408 3.85034ZM7.26529 7.70437C7.04497 8.08646 6.83359 8.47364 6.63134 8.8656C6.35204 8.20305 6.11301 7.55156 5.91783 6.92244C6.55853 6.77911 7.24178 6.66191 7.95371 6.57297C7.71541 6.94463 7.48587 7.32193 7.26529 7.70437ZM7.97415 13.437C7.23862 13.3549 6.54511 13.2438 5.90458 13.1043C6.10283 12.4639 6.34713 11.7986 6.63248 11.1218C6.83554 11.5141 7.04779 11.9015 7.26906 12.2838C7.4966 12.6767 7.73222 13.0617 7.97415 13.437ZM11.2673 16.1589C10.8126 15.6684 10.3591 15.1257 9.91616 14.542C10.3462 14.5588 10.7845 14.5674 11.23 14.5674C11.6877 14.5674 12.1402 14.5572 12.5855 14.5374C12.1483 15.1316 11.7068 15.6751 11.2673 16.1589ZM15.8461 11.0873C16.1463 11.7715 16.3992 12.4333 16.6001 13.0627C15.9491 13.2113 15.2461 13.3309 14.5054 13.4198C14.7427 13.0435 14.9726 12.6626 15.1948 12.2772C15.4207 11.8854 15.6378 11.4887 15.8461 11.0873ZM14.3638 11.7979C14.0236 12.3888 13.6644 12.9685 13.2865 13.536C12.6021 13.5845 11.9162 13.6086 11.23 13.6082C10.5312 13.6082 9.85143 13.5865 9.19687 13.544C8.80917 12.9778 8.44303 12.3971 8.09923 11.8031C7.75706 11.2124 7.43753 10.6088 7.14116 9.99376C7.43677 9.37857 7.75542 8.77472 8.09643 8.18349L8.09634 8.18358C8.43722 7.5922 8.80043 7.01397 9.1852 6.45016C9.85301 6.39963 10.5378 6.37332 11.2299 6.37332C11.9252 6.37332 12.611 6.3999 13.2786 6.45077C13.6595 7.01374 14.0204 7.58998 14.3606 8.17841C14.7028 8.76833 15.0256 9.36924 15.3287 9.98016C15.0288 10.5973 14.7069 11.2036 14.3638 11.7979ZM16.3427 1.08525C17.0947 1.51893 17.3871 3.26779 16.9147 5.56121C16.8845 5.70753 16.8506 5.85656 16.8138 6.0077C15.882 5.79262 14.8704 5.6327 13.8112 5.53332C13.1941 4.65463 12.5548 3.85577 11.9129 3.1642C12.0811 3.00205 12.2533 2.8441 12.4294 2.69051C14.0873 1.24779 15.6368 0.678143 16.3427 1.08525ZM11.23 7.9656C12.3375 7.9656 13.2353 8.86341 13.2353 9.97086C13.2353 11.0783 12.3375 11.9761 11.23 11.9761C10.1226 11.9761 9.22476 11.0783 9.22476 9.97086C9.22476 8.86341 10.1226 7.9656 11.23 7.9656Z" fill="#00D8FF"/>
</g>
<defs>
<clipPath id="clip0_404_726">
<rect width="22.46" height="20" fill="white"/>
</clipPath>
</defs>
</svg>
