<svg width="20" height="20" viewBox="0 0 20 20" fill="none" xmlns="http://www.w3.org/2000/svg">
<path fill-rule="evenodd" clip-rule="evenodd" d="M0.19043 8.77437C0.19043 8.88422 0.222773 8.95672 0.240898 9.02719C0.359023 9.48547 0.61293 9.87875 0.91418 10.2375C1.34324 10.7487 1.86871 11.1603 2.40699 11.5473C2.87387 11.883 3.35027 12.2111 3.81902 12.5442C3.89949 12.6014 3.97559 12.6672 4.06293 12.7373C3.98777 12.778 3.92527 12.8138 3.86027 12.8467C3.24168 13.1605 2.64652 13.5122 2.09793 13.9383C1.7673 14.1952 1.44762 14.4681 1.22184 14.8248C0.858555 15.3986 0.729961 16.0098 1.00074 16.6625C1.0798 16.8531 1.20043 17.0178 1.37059 17.1395C1.42574 17.1789 1.48762 17.218 1.55215 17.2333C1.71746 17.2722 1.8859 17.2977 2.05324 17.3284L2.52715 17.3281C3.05121 17.2814 3.52824 17.1019 3.95934 16.8044C4.63309 16.3394 5.08699 15.7159 5.28215 14.9158C5.42402 14.3342 5.4298 13.752 5.26262 13.1731C5.24662 13.1195 5.22816 13.0666 5.2073 13.0147C5.18699 12.9627 5.16309 12.912 5.13496 12.8472L6.20934 12.2294L6.22543 12.2431C6.2059 12.307 6.18512 12.3708 6.16746 12.4353C6.0398 12.9016 5.95496 13.3759 5.98543 13.8598C6.01793 14.3755 6.16184 14.8581 6.46371 15.2889C6.70777 15.6373 7.28934 15.6503 7.54871 15.3006C7.64074 15.1764 7.72996 15.0466 7.79699 14.908C7.97215 14.5463 8.13434 14.1781 8.30168 13.8125L8.3309 13.7456C8.31887 13.9188 8.3048 14.0708 8.2984 14.223C8.2884 14.4606 8.3023 14.6969 8.38355 14.923C8.45309 15.1164 8.57137 15.2609 8.79293 15.2864C8.94449 15.3038 9.06527 15.2344 9.17668 15.1464C9.34927 15.01 9.49233 14.84 9.59715 14.6466C9.89418 14.1011 10.1992 13.5589 10.4684 12.9997C10.7596 12.3948 11.0143 11.7723 11.2848 11.1572L11.3295 11.0481C11.3934 11.2992 11.4379 11.5452 11.52 11.778C11.6153 12.0481 11.7332 12.3119 11.8617 12.5683C11.9225 12.6894 11.9154 12.768 11.8312 12.8695C11.4787 13.2945 11.1323 13.7247 10.7856 14.1544C10.7089 14.2492 10.6325 14.3458 10.5686 14.4494C10.5298 14.5148 10.5043 14.5872 10.4936 14.6625C10.4828 14.7318 10.4993 14.8026 10.5396 14.86C10.5799 14.9174 10.6408 14.957 10.7096 14.9705C10.8486 15.0004 10.991 15.0105 11.1328 15.0006C11.6167 14.965 12.0561 14.7952 12.4445 14.5073C12.9478 14.1345 13.1093 13.6258 12.9875 13.0228C12.9545 12.8592 12.8962 12.7002 12.8395 12.5425C12.814 12.4714 12.8123 12.4216 12.8587 12.3553C13.2611 11.7808 13.6048 11.1712 13.9245 10.5477C13.9371 10.5231 13.9501 10.4986 13.9723 10.4723C14.0759 11.0114 14.2318 11.5309 14.5112 12.0023C14.3687 12.1397 14.2276 12.2642 14.1 12.4014C13.8189 12.7036 13.5751 13.0317 13.4479 13.4319C13.3932 13.6044 13.3512 13.7797 13.3756 13.9639C13.4134 14.25 13.6478 14.4359 13.9292 14.3708C14.5314 14.2314 15.0512 13.9477 15.4311 13.445C15.6867 13.1066 15.71 12.7291 15.6029 12.3336C15.5736 12.2261 15.5387 12.1203 15.5012 11.997C15.6498 11.9509 15.7946 11.8956 15.9445 11.8614C16.7225 11.6839 17.492 11.7148 18.2417 11.9958C18.6793 12.1598 19.0329 12.4344 19.2426 12.8663C19.4987 13.3942 19.3571 13.8952 18.8595 14.2289C18.8131 14.26 18.76 14.2845 18.7215 14.3234C18.7092 14.3377 18.7 14.3544 18.6945 14.3724C18.689 14.3904 18.6873 14.4094 18.6895 14.4281C18.6928 14.4473 18.7436 14.4714 18.7728 14.4711C18.9364 14.4698 19.069 14.3841 19.1964 14.2959C19.5154 14.0752 19.7482 13.7781 19.7984 13.387L19.8082 13.3577L19.7962 13.103C19.7914 13.0883 19.7998 13.0737 19.7987 13.0627C19.7309 12.4931 19.4267 12.0514 18.9842 11.7052C18.4717 11.3044 17.8665 11.1394 17.2265 11.1133C16.7075 11.0909 16.1891 11.1707 15.7007 11.3481C15.5606 11.3989 15.4217 11.4591 15.2807 11.5158C15.2618 11.4816 15.2415 11.4488 15.2248 11.4148C15.0801 11.1186 14.9048 10.8355 14.8661 10.4958C14.8386 10.2545 14.8048 10.0136 14.8621 9.775C14.9173 9.54547 14.9892 9.31984 15.0568 9.09344C15.0917 8.97688 15.0671 8.91156 14.9559 8.85906C14.9171 8.83973 14.8758 8.82615 14.8331 8.81875C14.5596 8.77906 14.29 8.80172 14.0251 8.87875C13.9314 8.90609 13.8632 8.95859 13.8425 9.06234C13.8306 9.12188 13.8064 9.17891 13.7895 9.23766C13.7203 9.48187 13.6712 9.73078 13.5593 9.96344C13.279 10.547 12.959 11.1086 12.6315 11.6661C12.5961 11.7263 12.5587 11.7853 12.514 11.8583C12.399 11.6177 12.2764 11.4017 12.2392 11.1486C12.1971 10.8623 12.164 10.5766 12.2353 10.2925C12.2882 10.0806 12.3575 9.87266 12.4212 9.66359C12.4514 9.56422 12.4375 9.51203 12.3475 9.45969C12.302 9.43328 12.2506 9.40984 12.1993 9.40219C11.919 9.35948 11.6325 9.38292 11.3628 9.47062C11.2779 9.49812 11.2334 9.55297 11.2075 9.64047C11.1312 9.89859 11.0662 10.163 10.9592 10.4084C10.5257 11.4022 10.0798 12.3908 9.63434 13.3792C9.54137 13.5856 9.43246 13.7848 9.32762 13.9858C9.30105 14.0367 9.2623 14.0816 9.22918 14.1294C9.20262 14.098 9.1923 14.0764 9.19246 14.0548C9.19324 13.9278 9.17809 13.797 9.2023 13.6742C9.27667 13.3028 9.35888 12.933 9.44887 12.565C9.5223 12.2609 9.60777 11.9597 9.68918 11.6577C9.71652 11.5566 9.71699 11.462 9.64434 11.377C9.5223 11.2347 9.2673 11.2034 9.11605 11.3131L9.04918 11.3509L9.06215 11.2431C9.09402 11.012 9.10043 10.7817 9.03699 10.5541C8.95793 10.2703 8.75543 10.107 8.46105 10.1161C8.32387 10.1203 8.1798 10.1437 8.05277 10.1937C7.51855 10.4031 7.10777 10.7739 6.75809 11.22C6.72567 11.2614 6.68549 11.2961 6.6398 11.3222C6.18777 11.5728 5.73434 11.8203 5.28105 12.0687L4.77652 12.3452C4.64121 12.2161 4.51824 12.0822 4.37871 11.9686C3.95262 11.6211 3.51965 11.2822 3.09059 10.9386C2.71027 10.6341 2.34184 10.3169 2.05996 9.91359C1.85027 9.61359 1.71512 9.28531 1.70215 8.91437C1.68574 8.44172 1.8198 8.00984 2.06043 7.60781C2.36824 7.09344 2.78809 6.68062 3.24965 6.30672C3.73793 5.91141 4.26605 5.57578 4.8134 5.26937C5.57918 4.84078 6.36684 4.46141 7.21137 4.21094C8.0773 3.95406 8.9559 3.80703 9.86215 3.90953C10.2184 3.94984 10.5643 4.03141 10.882 4.20563C11.1253 4.33891 11.3248 4.51344 11.4176 4.78625C11.5092 5.05469 11.5064 5.32672 11.4429 5.59937C11.314 6.15156 11.0117 6.60672 10.6312 7.01344C10.0071 7.68016 9.2459 8.13406 8.38887 8.43391C7.8961 8.60653 7.3834 8.7159 6.86309 8.75938C6.43668 8.79516 6.01918 8.75734 5.61543 8.60906C5.34809 8.51078 5.11527 8.36047 4.92809 8.14234C4.89465 8.10328 4.85184 8.06094 4.78949 8.0975C4.7284 8.13344 4.71762 8.19156 4.73809 8.25047C4.7723 8.34828 4.80387 8.45016 4.85715 8.53766C4.99105 8.75719 5.18637 8.91641 5.40137 9.05297C5.81434 9.31562 6.2759 9.40391 6.75449 9.42438C7.48074 9.45578 8.18934 9.34734 8.88793 9.1525C9.88527 8.87438 10.7525 8.38313 11.4479 7.60813C12.027 6.96281 12.4406 6.23453 12.5292 5.35516C12.5725 4.92594 12.5264 4.50547 12.3254 4.11391C12.1075 3.68969 11.7609 3.37422 11.3465 3.15688C10.7431 2.84047 10.0918 2.65625 9.41965 2.65625H8.74621C7.93215 2.65625 7.14512 2.88953 6.38012 3.16781C5.80105 3.37859 5.23324 3.62734 4.68199 3.90266C3.48152 4.5025 2.36355 5.22578 1.44527 6.22031C0.987773 6.71578 0.60043 7.2625 0.377617 7.90625C0.310368 8.09845 0.252436 8.29378 0.204023 8.49156M4.55387 14.1186C4.50184 14.8153 4.18605 15.3802 3.66996 15.8377C3.37965 16.0948 3.04668 16.278 2.65887 16.3423C2.51824 16.3656 2.37434 16.3712 2.23793 16.313C2.0434 16.2298 1.9998 16.0572 1.99605 15.8733C1.99027 15.5802 2.09293 15.3152 2.23371 15.063C2.41746 14.7342 2.68684 14.4836 2.97449 14.2495C3.42762 13.8806 3.91918 13.5684 4.42262 13.2738L4.46059 13.2581C4.5384 13.5456 4.57543 13.8295 4.55387 14.1186ZM8.4848 11.0906C8.44809 11.3131 8.40215 11.5358 8.33715 11.7514C8.11246 12.4978 7.82387 13.2211 7.51184 13.9347C7.45418 14.0667 7.37027 14.1872 7.2973 14.3123C7.28489 14.3316 7.27003 14.3491 7.25309 14.3645C7.16277 14.4537 7.07715 14.4491 7.03152 14.3323C6.9784 14.1967 6.94574 14.0516 6.91762 13.908C6.89871 13.8116 6.90324 13.7103 6.8973 13.6116C6.9034 12.9094 7.11762 12.2713 7.48105 11.6772C7.6309 11.4322 7.79402 11.1988 8.04324 11.0438C8.12077 10.9955 8.20465 10.9584 8.29246 10.9334C8.42527 10.8961 8.50684 10.9575 8.4848 11.0906ZM11.1667 14.5075L12.1306 13.382C12.1707 13.8 11.4603 14.6344 11.1667 14.5075ZM14.2453 13.7502C14.1771 13.7892 14.1029 13.8173 14.0331 13.8534C13.9692 13.8866 13.9481 13.8531 13.9462 13.7981C13.9453 13.7601 13.9502 13.7221 13.9607 13.6855C14.0909 13.2264 14.3304 12.8345 14.6868 12.5158L14.7118 12.503C14.8814 12.9772 14.6854 13.498 14.2453 13.7502Z" fill="#CB6699"/>
</svg>
