<svg width="20" height="20" viewBox="0 0 20 20" fill="none" xmlns="http://www.w3.org/2000/svg">
<g clip-path="url(#clip0_404_655)">
<path d="M10.0007 4.00037C7.33401 4.00037 5.66792 5.33318 5.00073 7.9999C6.00042 6.66693 7.16745 6.16709 8.50042 6.50037C9.26151 6.69005 9.80542 7.24193 10.4078 7.85349C11.3881 8.84834 12.5228 10.0001 15.0007 10.0001C17.6673 10.0001 19.3335 8.66708 20.0007 5.99974C19.0009 7.33349 17.834 7.83334 16.5009 7.50005C15.74 7.31021 15.1967 6.75849 14.5935 6.14693C13.6139 5.15209 12.4795 4.00037 10.0007 4.00037ZM5.00073 10.0001C2.33417 10.0001 0.66792 11.333 0.000732422 14.0004C1.00042 12.6666 2.1673 12.1668 3.50042 12.5001C4.26151 12.6899 4.80542 13.2416 5.40776 13.8532C6.38808 14.848 7.52276 15.9997 10.0007 15.9997C12.6673 15.9997 14.3335 14.6669 15.0007 12.0002C14.0009 13.3332 12.834 13.833 11.5009 13.4997C10.74 13.3101 10.1967 12.7582 9.59354 12.1466C8.61386 11.1518 7.47948 10.0001 5.00073 10.0001Z" fill="#38BDF8"/>
</g>
<defs>
<clipPath id="clip0_404_655">
<rect width="20" height="20" fill="white"/>
</clipPath>
</defs>
</svg>
