<svg width="20" height="20" viewBox="0 0 20 20" fill="none" xmlns="http://www.w3.org/2000/svg">
<path d="M18.3265 15.3281L10.3499 19.8438V16.3266L15.3124 13.5938L18.3265 15.3281ZM18.8733 14.8344V5.39844L15.9546 7.08594V13.15L18.8718 14.8328L18.8733 14.8344ZM1.67334 15.3281L9.64209 19.8406V16.3266L4.67803 13.5938L1.67334 15.3281ZM1.12646 14.8344V5.39844L4.04521 7.08594V13.15L1.12646 14.8344ZM1.46865 4.7875L9.6499 0.15625V3.55625L4.40771 6.43906L4.36553 6.4625L1.46865 4.7875ZM18.528 4.7875L10.3499 0.15625V3.55625L15.5921 6.4375L15.6343 6.46094L18.5312 4.7875H18.528Z" fill="#8ED6FB"/>
<path d="M9.65005 15.5266L4.74536 12.8281V7.48752L9.65005 10.3125V15.5266ZM10.35 15.5266L15.2547 12.8313V7.48752L10.35 10.3125V15.5266ZM5.07817 6.87502L10 4.16565L14.9219 6.87502L10 9.71252L5.07817 6.87502Z" fill="#1C78C0"/>
</svg>
