<svg width="20" height="20" viewBox="0 0 20 20" fill="none" xmlns="http://www.w3.org/2000/svg">
<g clip-path="url(#clip0_404_698)">
<path d="M16.6797 0H3.32031C1.48655 0 0 1.52223 0 3.4V16.568C0 18.4458 1.48655 19.968 3.32031 19.968H16.6797C18.5134 19.968 20 18.4458 20 16.568V3.4C20 1.52223 18.5134 0 16.6797 0Z" fill="#470137"/>
<path d="M10.514 5.25115L8.01844 9.46899L10.6884 13.9478C10.7055 13.9792 10.7103 14.016 10.7018 14.0508C10.6977 14.0657 10.6888 14.0694 10.6751 14.07L10.6599 14.0697L10.6415 14.0692C10.6315 14.0692 10.6203 14.0697 10.6079 14.0718H8.68289L8.64508 14.0712C8.54133 14.0684 8.46656 14.0532 8.42102 13.9752C8.2429 13.6199 8.06399 13.265 7.8843 12.9105C7.72356 12.5943 7.55844 12.2805 7.38899 11.9692L7.31414 11.832C7.11146 11.4632 6.91244 11.0922 6.71711 10.7192H6.70367C6.52328 11.0883 6.33766 11.4547 6.14688 11.8183C5.95445 12.1847 5.76438 12.5488 5.57664 12.9105C5.3888 13.2725 5.19649 13.632 4.99977 13.989C4.96813 14.0618 4.91555 14.077 4.84234 14.0795L4.81188 14.08H2.97383L2.96586 14.0802L2.93961 14.0826C2.925 14.0835 2.91625 14.0803 2.91344 14.0577C2.9084 14.0242 2.91557 13.99 2.93359 13.9616L5.52297 9.60635L3.00063 5.23755C2.97383 5.20107 2.96938 5.17131 2.98719 5.14827C2.99709 5.13654 3.00952 5.12732 3.0235 5.12135C3.03748 5.11538 3.05262 5.11282 3.06773 5.11387H4.95945C5.00071 5.11156 5.04195 5.11861 5.08024 5.13451C5.11227 5.15315 5.13984 5.17899 5.1607 5.21011C5.32172 5.57651 5.50063 5.94291 5.69742 6.30915C5.89269 6.67308 6.09171 7.03489 6.29445 7.39451C6.49409 7.74857 6.67983 8.11064 6.85125 8.47987H6.86469C7.04036 8.11073 7.2215 7.74434 7.40805 7.38083C7.59125 7.02363 7.77914 6.66403 7.97148 6.30227C8.16139 5.94515 8.347 5.58566 8.52828 5.22387C8.53859 5.18995 8.55703 5.15923 8.58195 5.13451C8.61509 5.11733 8.65233 5.11017 8.6893 5.11387H10.4469C10.463 5.10975 10.4801 5.11111 10.4954 5.11775C10.5107 5.12439 10.5236 5.13595 10.5319 5.15069C10.5403 5.16543 10.5438 5.18256 10.5418 5.19949C10.5399 5.21643 10.5326 5.23225 10.5211 5.24459L10.5141 5.25131L10.514 5.25115ZM14.457 14.249L14.3645 14.25C13.7469 14.2597 13.135 14.1283 12.5733 13.8654C12.05 13.6174 11.6125 13.2126 11.3188 12.7044C11.0227 12.2008 10.8706 11.5731 10.863 10.8216L10.8627 10.7604C10.8576 10.1299 11.015 9.50911 11.3189 8.96067C11.6231 8.41785 12.0665 7.97061 12.6011 7.66739L12.6471 7.64179C13.2284 7.31203 13.9305 7.14715 14.7535 7.14715L14.7895 7.14755L14.8305 7.14891L14.8766 7.15099L14.9279 7.15403L15.014 7.16027L15.1115 7.16827L15.1828 7.17467V4.46811C15.1828 4.40411 15.2097 4.37195 15.2633 4.37195H16.9538C16.9648 4.37035 16.9759 4.37137 16.9864 4.37494C16.9969 4.37852 17.0064 4.38454 17.0142 4.39254C17.022 4.40053 17.0279 4.41028 17.0314 4.42101C17.0349 4.43174 17.0359 4.44316 17.0343 4.45435V12.574C17.0343 12.7103 17.0395 12.8572 17.0498 13.0143L17.0748 13.3707L17.088 13.5768C17.0897 13.6054 17.0829 13.6338 17.0685 13.6583C17.0541 13.6828 17.0329 13.7023 17.0075 13.7143C16.5714 13.9005 16.1171 14.0386 15.6524 14.1264C15.2579 14.2009 14.8581 14.2419 14.457 14.249ZM15.1828 12.5464V8.79579C15.1103 8.77569 15.0363 8.76191 14.9615 8.75459C14.8701 8.74517 14.7783 8.74058 14.6864 8.74083C14.3608 8.73753 14.0391 8.81285 13.7473 8.96067C13.463 9.10536 13.2203 9.32313 13.0429 9.59267C12.8658 9.85795 12.7741 10.2044 12.7681 10.6319L12.7678 10.678C12.7613 10.9775 12.809 11.2756 12.9087 11.5572C12.9898 11.7842 13.118 11.9905 13.2845 12.1618C13.4438 12.3194 13.6366 12.437 13.8479 12.5052C14.071 12.5792 14.3043 12.6164 14.5388 12.6152C14.664 12.6152 14.7802 12.6106 14.8877 12.6014C14.9733 12.5948 15.0583 12.5803 15.1414 12.5582L15.1828 12.5464Z" fill="#FF61F6"/>
</g>
<defs>
<clipPath id="clip0_404_698">
<rect width="20" height="20" fill="white"/>
</clipPath>
</defs>
</svg>
